<svg viewBox="0 0 57 56" fill="none" xmlns="http://www.w3.org/2000/svg">
<path d="M0.5 27.8319C0.5 27.2832 0.612915 26.7403 0.83172 26.237L9.45431 6.40509C10.0893 4.94465 11.5301 4 13.1226 4H43.8774C45.4699 4 46.9107 4.94466 47.5457 6.4051L56.1683 26.237C56.3871 26.7403 56.5 27.2832 56.5 27.8319V48C56.5 50.2091 54.7091 52 52.5 52H4.5C2.29086 52 0.5 50.2091 0.5 48V27.8319Z" fill="#ADCEFF"/>
<path d="M0.5 28C0.5 25.7909 2.29086 24 4.5 24H16.5C18.7091 24 20.5 25.7909 20.5 28C20.5 30.2091 22.2909 32 24.5 32H32.5C34.7091 32 36.5 30.2091 36.5 28C36.5 25.7909 38.2909 24 40.5 24H52.5C54.7091 24 56.5 25.7909 56.5 28V48C56.5 50.2091 54.7091 52 52.5 52H4.5C2.29086 52 0.5 50.2091 0.5 48V28Z" fill="#8CBAFF"/>
<path d="M32.5 40.5C32.5 40.2239 32.7239 40 33 40H48C48.2761 40 48.5 40.2239 48.5 40.5V42C48.5 42.2761 48.2761 42.5 48 42.5H33C32.7239 42.5 32.5 42.2761 32.5 42V40.5Z" fill="#EBF3FF"/>
<path d="M40.5 46C40.5 45.7239 40.7239 45.5 41 45.5H48C48.2761 45.5 48.5 45.7239 48.5 46V47.5C48.5 47.7761 48.2761 48 48 48H41C40.7239 48 40.5 47.7761 40.5 47.5V46Z" fill="#EBF3FF"/>
<path d="M14.25 45.5C13.5596 45.5 13 46.0596 13 46.75C13 47.4404 13.5596 48 14.25 48C14.9404 48 15.5 47.4404 15.5 46.75C15.5 46.0596 14.9404 45.5 14.25 45.5Z" fill="#EBF3FF"/>
<path d="M17.5 46.75C17.5 46.0596 18.0596 45.5 18.75 45.5C19.4404 45.5 20 46.0596 20 46.75C20 47.4404 19.4404 48 18.75 48C18.0596 48 17.5 47.4404 17.5 46.75Z" fill="#EBF3FF"/>
<path d="M9.75 45.5C9.05964 45.5 8.5 46.0596 8.5 46.75C8.5 47.4404 9.05964 48 9.75 48C10.4404 48 11 47.4404 11 46.75C11 46.0596 10.4404 45.5 9.75 45.5Z" fill="#EBF3FF"/>
</svg>
