<svg xmlns="http://www.w3.org/2000/svg" width="18" height="18" viewBox="0 0 18 18" fill="none">
  <path d="M12.248 2.67837L9.04841 3.68266L12.5748 3.68488L12.248 2.67837ZM12.066 1.2616C12.6694 1.0722 13.3128 1.40415 13.5081 2.00566L14.0535 3.68536H15.4688C16.1677 3.68536 16.7344 4.252 16.7344 4.95098V15.076C16.7344 15.775 16.1677 16.3416 15.4688 16.3416H2.53125C1.83227 16.3416 1.26562 15.775 1.26562 15.076V4.95098C1.26562 4.252 1.83226 3.68536 2.53125 3.68536H4.34407L12.066 1.2616ZM2.67188 5.09161V14.9354H15.3281V12.1229H13.5703C12.3992 12.1229 11.3906 11.2104 11.3906 10.0135C11.3906 8.81658 12.3992 7.90411 13.5703 7.90411H15.3281V5.09161H14.5102L14.5104 5.09236L2.67188 5.09161ZM15.3281 9.31036H13.5703C13.1104 9.31036 12.7969 9.6571 12.7969 10.0135C12.7969 10.3699 13.1104 10.7166 13.5703 10.7166H15.3281V9.31036Z" fill="#1A1A1A"/>
</svg>