<svg xmlns="http://www.w3.org/2000/svg" viewBox="0 0 16 16" fill="none">
  <path d="M3.68675 13.3033C3.60865 13.3814 3.48201 13.3814 3.40391 13.3033L2.6968 12.5962C2.6187 12.5181 2.6187 12.3915 2.6968 12.3134L7.01012 8.00003L2.69676 3.68667C2.61866 3.60857 2.61866 3.48193 2.69676 3.40383L3.40387 2.69672C3.48197 2.61862 3.60861 2.61862 3.68671 2.69672L8.00007 7.01008L12.3135 2.6967C12.3916 2.6186 12.5182 2.6186 12.5963 2.6967L13.3034 3.40381C13.3815 3.48191 13.3815 3.60855 13.3034 3.68665L8.99002 8.00003L13.3034 12.3134C13.3815 12.3915 13.3815 12.5181 13.3034 12.5962L12.5963 13.3033C12.5182 13.3814 12.3915 13.3814 12.3134 13.3033L8.00007 8.98998L3.68675 13.3033Z" fill="currentColor"/>
</svg>
