<svg xmlns="http://www.w3.org/2000/svg" width="14" height="14" viewBox="0 0 14 14" fill="#B8B8B8">
  <path d="M5.19531 2.39531C5.19531 2.49196 5.27366 2.57031 5.37031 2.57031H11.2109V10.1609C11.2109 10.2576 11.2893 10.3359 11.3859 10.3359H12.1297C12.2263 10.3359 12.3047 10.2576 12.3047 10.1609V1.91406C12.3047 1.67244 12.1088 1.47656 11.8672 1.47656H5.37031C5.27366 1.47656 5.19531 1.55491 5.19531 1.65156V2.39531ZM2.78906 4.86719V11.4297H8.91406V4.86719H2.78906ZM2.13281 12.5234C1.89119 12.5234 1.69531 12.3276 1.69531 12.0859V4.21094C1.69531 3.96931 1.89119 3.77344 2.13281 3.77344H9.57031C9.81194 3.77344 10.0078 3.96931 10.0078 4.21094V12.0859C10.0078 12.3276 9.81194 12.5234 9.57031 12.5234H2.13281Z" />
</svg>