<svg xmlns="http://www.w3.org/2000/svg" width="6" height="6" viewBox="0 0 6 6" fill="none">
  <path d="M1.5857 0.525043C1.48807 0.427412 1.32978 0.427412 1.23215 0.525043L0.525043 1.23215C0.427412 1.32978 0.427412 1.48807 0.525043 1.5857L1.93926 2.99992L0.525043 4.41413C0.427412 4.51176 0.427412 4.67005 0.525043 4.76768L1.23215 5.47479C1.32978 5.57242 1.48807 5.57242 1.5857 5.47479L2.99992 4.06058L4.41413 5.47479C4.51176 5.57242 4.67005 5.57242 4.76768 5.47479L5.47479 4.76768C5.57242 4.67005 5.57242 4.51176 5.47479 4.41413L4.06058 2.99992L5.47479 1.5857C5.57242 1.48807 5.57242 1.32978 5.47479 1.23215L4.76768 0.525043C4.67005 0.427412 4.51176 0.427412 4.41413 0.525043L2.99992 1.93926L1.5857 0.525043Z" fill="#AA98FF"/>
</svg>