<svg width="20" height="20" viewBox="0 0 20 20" fill="none" xmlns="http://www.w3.org/2000/svg">
<path d="M18.75 10C18.75 14.8325 14.8325 18.75 10 18.75C5.16751 18.75 1.25 14.8325 1.25 10C1.25 5.16751 5.16751 1.25 10 1.25C14.8325 1.25 18.75 5.16751 18.75 10ZM10.5312 11.25C10.6693 11.25 10.7812 11.1381 10.7812 11V5.875C10.7812 5.73693 10.6693 5.625 10.5312 5.625H9.46875C9.33068 5.625 9.21875 5.73693 9.21875 5.875V11C9.21875 11.1381 9.33068 11.25 9.46875 11.25H10.5312ZM9.99997 14.375C10.6213 14.375 11.125 13.8713 11.125 13.25C11.125 12.6287 10.6213 12.125 9.99997 12.125C9.37865 12.125 8.87497 12.6287 8.87497 13.25C8.87497 13.8713 9.37865 14.375 9.99997 14.375Z" fill="#FF9900"/>
</svg>
