<svg xmlns="http://www.w3.org/2000/svg" width="18" height="18" viewBox="0 0 18 18" fill="none">
  <path d="M2.05322 15.3844C2.05322 15.6951 2.30506 15.9469 2.61572 15.9469H9.77299C9.89725 15.9469 9.99799 15.8462 9.99799 15.7219V14.7657C9.99799 14.6414 9.89725 14.5407 9.77299 14.5407H3.45947L3.45947 3.45944L9.77299 3.45944C9.89725 3.45944 9.99799 3.35871 9.99799 3.23444V2.27819C9.99799 2.15393 9.89725 2.05319 9.77299 2.05319H2.61572C2.30506 2.05319 2.05322 2.30503 2.05322 2.61569V15.3844ZM12.4253 12.8183C12.3375 12.9061 12.195 12.9061 12.1071 12.8183L11.431 12.1421C11.3431 12.0542 11.3431 11.9118 11.431 11.8239L13.5517 9.70314L4.9501 9.70314C4.82583 9.70314 4.7251 9.6024 4.7251 9.47814V8.52189C4.7251 8.39762 4.82583 8.29689 4.9501 8.29689L13.5518 8.29689L11.4311 6.17617C11.3432 6.08831 11.3432 5.94584 11.4311 5.85798L12.1072 5.18181C12.1951 5.09394 12.3376 5.09394 12.4254 5.1818L15.846 8.60213C15.9082 8.66438 15.9528 8.73759 15.9798 8.81555C16.0481 9.01277 16.0036 9.24043 15.8461 9.39793L12.4253 12.8183Z" fill="#1A1A1A"/>
</svg>