<svg width="160" height="32" viewBox="0 0 160 32" fill="#1A1A1A" xmlns="http://www.w3.org/2000/svg">
<path d="M22.9575 22.8297L22.3601 22.7657V22.0146C22.3601 21.7671 22.1595 21.5666 21.912 21.5666C21.6645 21.5666 21.464 21.7671 21.464 22.0146V23.0174L20.8623 23.8282C20.7172 24.0245 20.7556 24.3062 20.9562 24.4512C21.0373 24.511 21.1311 24.5409 21.2208 24.5409C21.3573 24.5409 21.4939 24.4768 21.5792 24.3616L22.1169 23.6362L22.8594 23.713H22.9063C23.1325 23.713 23.3245 23.5423 23.3501 23.3119C23.3757 23.0687 23.1965 22.8468 22.9533 22.8212L22.9575 22.8297Z" fill="inherit"/>
<path fill-rule="evenodd" clip-rule="evenodd" d="M17.692 17.8883C18.1272 17.389 18.6735 17.133 19.1855 17.1884H19.1898C19.5994 17.2311 19.9451 17.4701 20.1585 17.8584C20.598 18.6564 20.3675 19.9408 19.6336 20.7772C19.2325 21.2338 18.746 21.4855 18.2766 21.4855C18.2339 21.4855 18.187 21.4813 18.14 21.477C17.7304 21.4343 17.3848 21.1954 17.1714 20.807C16.7276 20.0091 16.958 18.7246 17.692 17.8883ZM18.2339 20.5937C18.443 20.615 18.7247 20.4614 18.9594 20.1926C19.4373 19.6464 19.6293 18.7545 19.3733 18.2894C19.3007 18.1571 19.2111 18.0888 19.0916 18.076H19.049C18.8441 18.076 18.5881 18.2254 18.3662 18.4771C17.8883 19.0233 17.6963 19.9152 17.9523 20.3803C18.0248 20.5126 18.1144 20.5809 18.2339 20.5937Z" fill="inherit"/>
<path fill-rule="evenodd" clip-rule="evenodd" d="M24.0461 14.372C23.534 14.3165 22.9921 14.5726 22.5526 15.0718C21.8186 15.9082 21.5882 17.1927 22.0277 17.9906C22.2411 18.379 22.5867 18.6179 22.9964 18.6606C23.0433 18.6649 23.0903 18.6691 23.1329 18.6691C23.6023 18.6691 24.0888 18.4174 24.4899 17.9608C25.2239 17.1244 25.4543 15.8399 25.0105 15.042C24.7971 14.6537 24.4515 14.4147 24.0418 14.372H24.0461ZM23.8199 17.3719C23.5852 17.6407 23.3036 17.7943 23.0945 17.773C22.975 17.7602 22.8854 17.6919 22.8129 17.5596C22.5568 17.0945 22.7489 16.2027 23.2268 15.6565C23.4487 15.4047 23.7047 15.2553 23.9096 15.2553H23.9522C24.0717 15.2681 24.1613 15.3364 24.2339 15.4687C24.4899 15.9338 24.2979 16.8257 23.8199 17.3719Z" fill="inherit"/>
<path fill-rule="evenodd" clip-rule="evenodd" d="M28.4966 9.46046C28.4497 8.87158 28.2448 8.30831 27.9163 7.83038C27.8821 7.76637 27.8437 7.70236 27.7968 7.64689L24.6177 3.9728C24.4854 3.81918 24.2806 3.74237 24.0757 3.77224C23.8752 3.80211 23.7002 3.93439 23.6191 4.12215L23.3375 4.77077L15.7632 0.405387C15.4133 0.204827 15.0292 0.0768102 14.6409 0.0256034C14.3849 -0.00853447 14.1245 -0.00853447 13.8685 0.0256034C13.4759 0.0768102 13.0961 0.20056 12.7462 0.405387L1.63435 6.81478L1.55754 6.86598L1.45086 6.92999C0.554741 7.44633 0 8.41072 0 9.44339V22.5481C0 23.5807 0.554741 24.5451 1.45086 25.0615L1.46793 25.07L1.50633 25.0956L12.6182 31.5093C12.6182 31.5093 12.6481 31.5221 12.6609 31.5306L12.7974 31.6117C13.2455 31.872 13.749 32 14.2483 32C14.7476 32 15.2511 31.872 15.6992 31.6117L15.8357 31.5349L15.8869 31.5093L26.9945 25.0956C26.9945 25.0956 27.0244 25.0743 27.0415 25.0657L27.0543 25.0572C27.9504 24.5409 28.5051 23.5765 28.5051 22.5438V9.65249C28.5051 9.58421 28.5009 9.5202 28.4923 9.45193L28.4966 9.46046ZM2.20616 7.86878L13.3607 1.42952C13.5655 1.31004 13.7917 1.2375 14.0221 1.20763C14.0989 1.19909 14.1758 1.19483 14.2526 1.19483C14.3251 1.19483 14.3977 1.19909 14.4702 1.20763H14.483C14.7134 1.2375 14.9396 1.31004 15.1444 1.42952L22.8596 5.88452L20.7473 10.7662L18.1187 7.73223C17.9864 7.57861 17.7816 7.5018 17.5767 7.53167C17.3762 7.56154 17.2012 7.69383 17.1201 7.88158L14.0349 15.0079C13.7917 14.978 13.5527 14.9055 13.3351 14.7774L2.23176 8.36378C2.09948 8.28697 2.08241 8.15895 2.08241 8.10775C2.08241 8.06081 2.09948 7.94986 2.20189 7.87305L2.20616 7.86878ZM27.3188 22.4969C27.3188 23.1242 26.9817 23.7088 26.4483 24.0416L15.2767 30.4937C15.153 30.5534 15.042 30.5107 14.9993 30.4851C14.9567 30.4595 14.85 30.3827 14.85 30.2291V17.4018C14.85 16.7574 15.1914 16.16 15.7461 15.8314L21.3831 12.5755H21.3874L26.8793 9.40499C26.9305 9.37938 26.9775 9.36658 27.0201 9.36658C27.0884 9.36658 27.1439 9.39219 27.1695 9.40925C27.2079 9.43059 27.2804 9.49033 27.306 9.60128C27.306 9.6226 27.3082 9.64391 27.3103 9.66523C27.3124 9.68657 27.3146 9.70796 27.3146 9.7293V22.5054L27.3188 22.4969Z" fill="inherit"/>
<path d="M110.945 9.75827C110.456 9.75827 110.046 9.60596 109.715 9.30132C109.398 8.98344 109.239 8.59271 109.239 8.12914C109.239 7.66556 109.398 7.28146 109.715 6.97682C110.046 6.65894 110.456 6.5 110.945 6.5C111.434 6.5 111.838 6.65894 112.155 6.97682C112.486 7.28146 112.651 7.66556 112.651 8.12914C112.651 8.59271 112.486 8.98344 112.155 9.30132C111.838 9.60596 111.434 9.75827 110.945 9.75827Z" fill="inherit"/>
<path d="M112.314 11.0695V22.0761H109.537V11.0695H112.314Z" fill="inherit"/>
<path fill-rule="evenodd" clip-rule="evenodd" d="M151.747 17.4073C151.8 17.0894 151.827 16.7318 151.827 16.3344C151.827 15.2616 151.595 14.3146 151.132 13.4934C150.683 12.6589 150.042 12.0165 149.209 11.5662C148.389 11.1159 147.457 10.8907 146.412 10.8907C145.328 10.8907 144.369 11.1225 143.536 11.5861C142.703 12.0497 142.055 12.7119 141.592 13.5728C141.129 14.4338 140.898 15.4338 140.898 16.5728C140.898 17.6987 141.129 18.692 141.592 19.553C142.068 20.4139 142.723 21.0828 143.556 21.5596C144.402 22.0232 145.354 22.2549 146.412 22.2549C147.721 22.2549 148.825 21.9172 149.724 21.2417C150.623 20.553 151.232 19.6788 151.549 18.6192H148.554C148.118 19.5066 147.384 19.9503 146.352 19.9503C145.638 19.9503 145.037 19.7251 144.548 19.2748C144.058 18.8245 143.781 18.202 143.715 17.4073H151.747ZM148.177 13.8311C148.68 14.255 148.938 14.8245 148.951 15.5397H143.734C143.84 14.798 144.124 14.2218 144.587 13.8112C145.063 13.3874 145.645 13.1755 146.333 13.1755C147.06 13.1755 147.675 13.394 148.177 13.8311Z" fill="inherit"/>
<path d="M158.019 11.4073C157.45 11.7384 156.988 12.1954 156.631 12.7781V11.0695H153.854V22.0761H156.631V16.5927C156.631 15.5728 156.849 14.8576 157.285 14.447C157.735 14.0364 158.396 13.8311 159.269 13.8311H160.002V10.9106C159.262 10.9106 158.601 11.0761 158.019 11.4073Z" fill="inherit"/>
<path fill-rule="evenodd" clip-rule="evenodd" d="M132.474 10.8907C133.294 10.8907 134.014 11.0563 134.636 11.3874C135.257 11.7053 135.747 12.1225 136.104 12.6391V11.0696H138.9V22.1556C138.9 23.1755 138.695 24.0828 138.285 24.8775C137.875 25.6854 137.261 26.3212 136.441 26.7848C135.621 27.2616 134.629 27.5 133.466 27.5C131.905 27.5 130.623 27.1358 129.618 26.4073C128.626 25.6788 128.064 24.6854 127.932 23.4272H130.689C130.834 23.9305 131.145 24.3278 131.621 24.6192C132.11 24.9238 132.699 25.0762 133.386 25.0762C134.193 25.0762 134.847 24.8311 135.35 24.3411C135.852 23.8642 136.104 23.1358 136.104 22.1556V20.447C135.747 20.9636 135.251 21.394 134.616 21.7384C133.995 22.0828 133.281 22.255 132.474 22.255C131.548 22.255 130.702 22.0166 129.935 21.5397C129.168 21.0629 128.56 20.3941 128.11 19.5331C127.674 18.659 127.456 17.659 127.456 16.5331C127.456 15.4205 127.674 14.4338 128.11 13.5729C128.56 12.7119 129.162 12.0497 129.915 11.5861C130.682 11.1225 131.535 10.8907 132.474 10.8907ZM136.104 16.5729C136.104 15.8974 135.971 15.3212 135.707 14.8444C135.442 14.3543 135.085 13.9835 134.636 13.7318C134.186 13.4669 133.704 13.3345 133.188 13.3345C132.672 13.3345 132.196 13.4603 131.76 13.7119C131.324 13.9636 130.967 14.3345 130.689 14.8245C130.424 15.3013 130.292 15.8709 130.292 16.5331C130.292 17.1954 130.424 17.7782 130.689 18.2815C130.967 18.7715 131.324 19.149 131.76 19.4139C132.21 19.6788 132.686 19.8113 133.188 19.8113C133.704 19.8113 134.186 19.6854 134.636 19.4338C135.085 19.1689 135.442 18.798 135.707 18.3212C135.971 17.8311 136.104 17.2484 136.104 16.5729Z" fill="inherit"/>
<path d="M124.319 12.1623C123.513 11.3278 122.455 10.9106 121.146 10.9106C120.458 10.9106 119.824 11.0497 119.242 11.3278C118.673 11.5927 118.204 11.9636 117.834 12.4404V11.0696H115.057V22.0762H117.834V15.9967C117.834 15.1225 118.052 14.4537 118.488 13.9901C118.938 13.5133 119.546 13.2749 120.313 13.2749C121.067 13.2749 121.662 13.5133 122.098 13.9901C122.534 14.4537 122.752 15.1225 122.752 15.9967V22.0762H125.529V15.6192C125.529 14.1358 125.126 12.9835 124.319 12.1623Z" fill="inherit"/>
<path fill-rule="evenodd" clip-rule="evenodd" d="M96.0355 13.5728C95.5992 14.4337 95.381 15.4205 95.381 16.5331C95.381 17.6589 95.5992 18.6589 96.0355 19.5331C96.4851 20.394 97.0933 21.0629 97.8602 21.5397C98.6272 22.0165 99.4734 22.2549 100.399 22.2549C101.219 22.2549 101.939 22.0894 102.561 21.7582C103.182 21.4271 103.665 20.99 104.009 20.447V22.0761H106.825V7.37415H104.009V12.5993C103.625 12.0827 103.11 11.6722 102.462 11.3675C101.814 11.0496 101.133 10.8907 100.419 10.8907C99.48 10.8907 98.6272 11.1225 97.8602 11.5861C97.0933 12.0496 96.4851 12.7119 96.0355 13.5728ZM103.632 14.8443C103.896 15.3212 104.029 15.8973 104.029 16.5728C104.029 17.2483 103.896 17.8311 103.632 18.3212C103.367 18.798 103.01 19.1688 102.561 19.4337C102.111 19.6854 101.629 19.8112 101.113 19.8112C100.611 19.8112 100.135 19.6788 99.685 19.4139C99.2486 19.149 98.8916 18.7715 98.6139 18.2814C98.3495 17.7781 98.2173 17.1953 98.2173 16.5331C98.2173 15.8708 98.3495 15.3013 98.6139 14.8245C98.8916 14.3344 99.2486 13.9635 99.685 13.7119C100.121 13.4602 100.597 13.3344 101.113 13.3344C101.629 13.3344 102.111 13.4669 102.561 13.7318C103.01 13.9834 103.367 14.3543 103.632 14.8443Z" fill="inherit"/>
<path fill-rule="evenodd" clip-rule="evenodd" d="M88.3262 22.255C87.2684 22.255 86.3164 22.0232 85.4701 21.5596C84.6239 21.0828 83.9561 20.4139 83.4669 19.553C82.9909 18.6921 82.7529 17.6987 82.7529 16.5729C82.7529 15.4471 82.9975 14.4537 83.4867 13.5928C83.9892 12.7318 84.6702 12.0696 85.5296 11.606C86.3891 11.1292 87.3478 10.8908 88.4056 10.8908C89.4634 10.8908 90.422 11.1292 91.2815 11.606C92.141 12.0696 92.8153 12.7318 93.3046 13.5928C93.8071 14.4537 94.0583 15.4471 94.0583 16.5729C94.0583 17.6987 93.8004 18.6921 93.2848 19.553C92.7823 20.4139 92.0947 21.0828 91.222 21.5596C90.3625 22.0232 89.3973 22.255 88.3262 22.255ZM88.3262 19.8312C88.8287 19.8312 89.2981 19.7119 89.7345 19.4735C90.184 19.2219 90.541 18.851 90.8055 18.361C91.07 17.8709 91.2022 17.2749 91.2022 16.5729C91.2022 15.5265 90.9245 14.7252 90.3691 14.1689C89.827 13.5994 89.1593 13.3146 88.3659 13.3146C87.5725 13.3146 86.9048 13.5994 86.3627 14.1689C85.8338 14.7252 85.5693 15.5265 85.5693 16.5729C85.5693 17.6192 85.8272 18.4272 86.3428 18.9967C86.8717 19.553 87.5329 19.8312 88.3262 19.8312Z" fill="inherit"/>
<path d="M79.593 11.4073C79.0244 11.7384 78.5616 12.1954 78.2046 12.7782V11.0696H75.4278V22.0762H78.2046V16.5927C78.2046 15.5729 78.4228 14.8576 78.8591 14.447C79.3087 14.0364 79.9698 13.8311 80.8425 13.8311H81.5764V10.9106C80.8359 10.9106 80.1748 11.0762 79.593 11.4073Z" fill="inherit"/>
<path d="M68.5027 10.9106C69.3357 10.9106 70.0762 11.096 70.7241 11.4669C71.372 11.8245 71.8744 12.3609 72.2314 13.0761C72.6017 13.7781 72.7868 14.6258 72.7868 15.6192V22.0761H70.01V15.9967C70.01 15.1225 69.7919 14.4536 69.3555 13.99C68.9192 13.5132 68.3241 13.2748 67.5704 13.2748C66.8035 13.2748 66.1953 13.5132 65.7457 13.99C65.3094 14.4536 65.0912 15.1225 65.0912 15.9967V22.0761H62.3144V7.37414H65.0912V12.4404C65.4482 11.9635 65.9242 11.5927 66.5192 11.3278C67.1143 11.0496 67.7754 10.9106 68.5027 10.9106Z" fill="inherit"/>
<path d="M50.3637 13.5927C49.9009 14.4404 49.6695 15.4338 49.6695 16.5729C49.6695 17.7119 49.9009 18.7119 50.3637 19.5729C50.8265 20.4205 51.4678 21.0828 52.2876 21.5596C53.1074 22.0232 54.0462 22.255 55.104 22.255C56.4527 22.255 57.5767 21.904 58.4758 21.202C59.3749 20.5 59.9766 19.553 60.2807 18.3609H57.2858C56.942 19.3676 56.2081 19.8709 55.0842 19.8709C54.2908 19.8709 53.6627 19.5861 53.1999 19.0166C52.7372 18.4338 52.5058 17.6192 52.5058 16.5729C52.5058 15.5133 52.7372 14.6987 53.1999 14.1292C53.6627 13.5464 54.2908 13.255 55.0842 13.255C55.6395 13.255 56.1023 13.3941 56.4726 13.6722C56.856 13.9371 57.1271 14.308 57.2858 14.7848H60.2807C59.9766 13.553 59.3749 12.5994 58.4758 11.9239C57.5899 11.2351 56.466 10.8907 55.104 10.8907C54.0462 10.8907 53.1074 11.1292 52.2876 11.606C51.4678 12.0696 50.8265 12.7318 50.3637 13.5927Z" fill="inherit"/>
<path d="M43.077 22.2152C42.1118 22.2152 41.2391 22.0497 40.4589 21.7186C39.692 21.3874 39.0838 20.9106 38.6342 20.2881C38.1846 19.6656 37.9532 18.9305 37.94 18.0828H40.9151C40.9548 18.6523 41.1531 19.1027 41.5102 19.4338C41.8804 19.7649 42.3829 19.9305 43.0175 19.9305C43.6655 19.9305 44.1745 19.7782 44.5448 19.4735C44.915 19.1556 45.1001 18.7451 45.1001 18.2417C45.1001 17.8311 44.9745 17.4934 44.7233 17.2285C44.472 16.9636 44.1547 16.7583 43.7712 16.6126C43.401 16.4537 42.8853 16.2815 42.2242 16.096C41.325 15.8311 40.5912 15.5729 40.0226 15.3212C39.4672 15.0563 38.9846 14.6656 38.5747 14.149C38.178 13.6192 37.9797 12.9172 37.9797 12.0431C37.9797 11.2219 38.1846 10.5067 38.5945 9.89738C39.0045 9.28811 39.5796 8.82453 40.3201 8.50665C41.0606 8.17553 41.9068 8.00997 42.8589 8.00997C44.2869 8.00997 45.4439 8.36096 46.3298 9.06294C47.229 9.75169 47.7248 10.7186 47.8174 11.9636H44.7629C44.7365 11.4868 44.5315 11.0961 44.1481 10.7914C43.7778 10.4735 43.282 10.3146 42.6605 10.3146C42.1184 10.3146 41.682 10.4537 41.3515 10.7318C41.0341 11.01 40.8755 11.4139 40.8755 11.9437C40.8755 12.3146 40.9945 12.6259 41.2325 12.8775C41.4837 13.1159 41.7878 13.3146 42.1448 13.4735C42.5151 13.6192 43.0308 13.7914 43.6919 13.9901C44.591 14.255 45.3249 14.5199 45.8935 14.7848C46.462 15.0497 46.9513 15.447 47.3612 15.9768C47.7711 16.5066 47.976 17.202 47.976 18.0629C47.976 18.8047 47.7843 19.4934 47.4009 20.1292C47.0174 20.7649 46.4554 21.2748 45.715 21.659C44.9745 22.0298 44.0952 22.2152 43.077 22.2152Z" fill="inherit"/>
<path d="M85.7398 9.5C85.3096 9.5 84.9491 9.35976 84.6584 9.07927C84.3793 8.78658 84.2398 8.42683 84.2398 8C84.2398 7.57317 84.3793 7.21951 84.6584 6.93902C84.9491 6.64634 85.3096 6.5 85.7398 6.5C86.17 6.5 86.5247 6.64634 86.8038 6.93902C87.0945 7.21951 87.2398 7.57317 87.2398 8C87.2398 8.42683 87.0945 8.78658 86.8038 9.07927C86.5247 9.35976 86.17 9.5 85.7398 9.5Z" fill="inherit"/>
<path d="M90.0583 9.07927C90.349 9.35976 90.7095 9.5 91.1397 9.5C91.5699 9.5 91.9246 9.35976 92.2037 9.07927C92.4944 8.78658 92.6397 8.42683 92.6397 8C92.6397 7.57317 92.4944 7.21951 92.2037 6.93902C91.9246 6.64634 91.5699 6.5 91.1397 6.5C90.7095 6.5 90.349 6.64634 90.0583 6.93902C89.7792 7.21951 89.6397 7.57317 89.6397 8C89.6397 8.42683 89.7792 8.78658 90.0583 9.07927Z" fill="inherit"/>
</svg>
