<svg width="32" height="32" viewBox="0 0 32 32" fill="#1A1A1A" xmlns="http://www.w3.org/2000/svg">
<g id="Group 2551">
<g id="Union">
<path d="M28 8.5C28 8.22386 27.7761 8 27.5 8H4.5C4.22386 8 4 8.22386 4 8.5V10C4 10.2761 4.22386 10.5 4.5 10.5H27.5C27.7761 10.5 28 10.2761 28 10V8.5Z" fill="inherit"/>
<path d="M4 15.25C4 14.9739 4.22386 14.75 4.5 14.75H27.5C27.7761 14.75 28 14.9739 28 15.25V16.75C28 17.0261 27.7761 17.25 27.5 17.25H4.5C4.22386 17.25 4 17.0261 4 16.75V15.25Z" fill="inherit"/>
<path d="M4 22C4 21.7239 4.22386 21.5 4.5 21.5H27.5C27.7761 21.5 28 21.7239 28 22V23.5C28 23.7761 27.7761 24 27.5 24H4.5C4.22386 24 4 23.7761 4 23.5V22Z" fill="inherit"/>
</g>
</g>
</svg>
