<svg xmlns="http://www.w3.org/2000/svg" width="16" height="16" viewBox="0 0 16 16" fill="none">
  <path d="M3.68663 13.3034C3.60853 13.3815 3.48189 13.3815 3.40379 13.3034L2.69668 12.5963C2.61858 12.5182 2.61858 12.3915 2.69668 12.3134L7.01 8.00009L2.69664 3.68673C2.61854 3.60863 2.61854 3.48199 2.69664 3.40389L3.40375 2.69678C3.48185 2.61868 3.60848 2.61868 3.68659 2.69678L7.99995 7.01014L12.3133 2.69676C12.3914 2.61866 12.5181 2.61866 12.5962 2.69676L13.3033 3.40387C13.3814 3.48197 13.3814 3.60861 13.3033 3.68671L8.9899 8.00009L13.3032 12.3134C13.3813 12.3915 13.3813 12.5182 13.3032 12.5963L12.5961 13.3034C12.518 13.3815 12.3914 13.3815 12.3133 13.3034L7.99995 8.99004L3.68663 13.3034Z" fill="#1A1A1A"/>
</svg>