<svg xmlns="http://www.w3.org/2000/svg" width="241" height="144" viewBox="0 0 241 144" fill="none">
  <path d="M88.586 44.5679C87.386 43.9319 87.986 41.6579 90.818 41.7659L88.586 44.5679Z" fill="white"/>
  <path d="M230.606 51.7045C230.584 51.0091 230.376 50.3323 230.004 49.7441C229.632 49.1559 229.11 48.6777 228.492 48.3589C227.873 48.0402 227.181 47.8925 226.486 47.9311C225.791 47.9697 225.119 48.1932 224.54 48.5785C223.559 46.7204 221.886 45.323 219.883 44.6886C217.88 44.0542 215.708 44.2338 213.836 45.1885C212.8 44.1031 211.539 43.2571 210.142 42.7097C208.745 42.1624 207.245 41.9269 205.747 42.0197C204.249 42.1126 202.79 42.5316 201.471 43.2473C200.152 43.9631 199.006 44.9584 198.112 46.1635C196.915 47.775 196.216 49.7009 196.1 51.7045H230.606Z" fill="#F2F6FA"/>
  <path d="M9.62916 82.8C9.64516 82.112 9.79333 81.4425 10.0583 80.8606C10.3234 80.2787 10.6956 79.8057 11.1365 79.4904C11.5775 79.1751 12.0711 79.029 12.5664 79.0672C13.0617 79.1054 13.5407 79.3265 13.9537 79.7076C14.653 77.8695 15.8456 76.4871 17.2737 75.8596C18.7017 75.232 20.2948 75.8555 21.6292 76.8C22.3678 75.7262 23.2223 74.4435 24.2184 73.902C25.2144 73.3606 26.2838 73.1276 27.3515 73.2195C28.4192 73.3114 29.4596 73.7258 30.3999 74.4339C31.3401 75.1419 32.1575 76.1265 32.7949 77.3186C33.6478 78.9127 34.1463 80.8179 34.2292 82.8H9.62916Z" fill="#F2F6FA"/>
  <path d="M20 131.4C20 131.4 29.2418 120.711 42.6218 121.157C57.9956 121.664 60.8045 119.324 65.3815 115.192C69.9585 111.061 80.6424 99.9131 98.8878 108.867C104.857 111.788 113.045 114.563 126.087 108.255C143.128 99.9742 194.04 73.0037 228.8 131.376L20 131.4Z" fill="#F2F6FA"/>
  <path d="M105.314 100.506V114.858H93.794V130.89H77.3V114.858H44.174V102.894L70.526 57.636H93.8V100.5L105.314 100.506Z" fill="#DEE1E8"/>
  <path d="M92.426 100.506V114.858H78.716V130.89H62.234V114.858H29.096V102.894L55.448 57.636H78.722V100.5L92.426 100.506ZM62.234 72.756H62.054L46.1 100.506H62.234V72.756Z" fill="white" stroke="#DEE1E8" stroke-width="0.9" stroke-linecap="round" stroke-linejoin="round"/>
  <path d="M91.496 100.602H97.88M91.022 114.198H97.406" stroke="#DEE1E8" stroke-width="0.48" stroke-linecap="round" stroke-linejoin="round"/>
  <path d="M126.098 58.374C122.21 58.374 120.542 58.164 116.984 58.344C107.762 62.544 99.5 74.232 99.5 84.972V104.526C99.5 115.698 106.892 131.07 117.464 131.07C120.764 131.07 122.642 131.124 126.098 131.124C133.146 131.103 139.899 128.294 144.882 123.31C149.866 118.327 152.675 111.574 152.696 104.526V84.972C152.676 77.924 149.867 71.1705 144.883 66.1868C139.9 61.2031 133.146 58.3943 126.098 58.374ZM136.394 104.208C136.385 106.936 135.298 109.55 133.369 111.479C131.44 113.408 128.826 114.495 126.098 114.504C123.37 114.495 120.756 113.408 118.827 111.479C116.898 109.55 115.811 106.936 115.802 104.208V85.29C115.812 82.5628 116.9 79.9501 118.829 78.0223C120.757 76.0944 123.371 75.0079 126.098 75C128.826 75.0076 131.441 76.0948 133.37 78.024C135.299 79.9533 136.386 82.5677 136.394 85.296V104.208Z" fill="#DEE1E8"/>
  <path d="M115.418 58.272C108.37 58.2922 101.616 61.101 96.6328 66.0847C91.6491 71.0684 88.8403 77.822 88.82 84.87V104.4C88.8403 111.448 91.6491 118.201 96.6328 123.185C101.616 128.169 108.37 130.978 115.418 130.998C122.466 130.977 129.219 128.168 134.203 123.185C139.187 118.201 141.995 111.448 142.016 104.4V84.87C141.995 77.8221 139.187 71.0687 134.203 66.0851C129.219 61.1014 122.466 58.2926 115.418 58.272ZM125.714 104.106C125.706 106.834 124.619 109.448 122.689 111.377C120.761 113.307 118.146 114.394 115.418 114.402C112.69 114.394 110.076 113.307 108.147 111.377C106.217 109.448 105.13 106.834 105.122 104.106V85.2C105.13 82.4717 106.217 79.8575 108.147 77.9286C110.076 75.9991 112.69 74.9117 115.418 74.904C118.146 74.9117 120.761 75.9991 122.689 77.9286C124.619 79.8575 125.706 82.4717 125.714 85.2V104.106Z" fill="white" stroke="#DEE1E8" stroke-width="0.9" stroke-linecap="round" stroke-linejoin="round"/>
  <path d="M209.852 100.662V115.014H197.252V131.046H180.758V115.014H147.62V103.05L173.972 57.792H197.24V100.656L209.852 100.662Z" fill="#DEE1E8"/>
  <path d="M195.866 100.506V114.858H183.266V130.89H166.772V114.858H133.634V102.894L159.986 57.636H183.26V100.5L195.866 100.506ZM166.772 72.756H166.592L150.656 100.506H166.772V72.756Z" fill="white" stroke="#DEE1E8" stroke-width="0.9" stroke-linecap="round" stroke-linejoin="round"/>
  <path d="M129.878 68.0221L129.716 63.0961" stroke="white" stroke-width="0.36" stroke-miterlimit="10"/>
  <path d="M128.372 19.062C128.118 19.7537 127.716 20.3811 127.192 20.8996C126.669 21.4181 126.038 21.815 125.344 22.062C124.65 22.3093 123.91 22.4009 123.176 22.3304C122.443 22.2599 121.734 22.029 121.1 21.654" fill="white"/>
  <path d="M132.452 24.15C132.452 24.15 131.648 25.35 128.252 25.476L132.452 24.15Z" fill="white"/>
  <path d="M129.116 15.042C130.316 15.786 130.916 18.042 131 20.334L129.116 15.042Z" fill="white"/>
  <path d="M131.396 15.36C131.396 15.36 132.596 16.56 132.686 19.932L131.396 15.36Z" fill="white"/>
  <path d="M206.774 91.998V100.038H216.5V82.47L210.878 82.296C207.782 82.296 206.786 91.998 206.786 91.998" fill="white"/>
  <path d="M200.9 91.998V100.038H210.614V82.47L204.992 82.296C201.896 82.296 200.9 91.998 200.9 91.998Z" fill="white"/>
  <path d="M100.148 49.4221C100.785 49.4221 101.395 49.1692 101.845 48.7191C102.295 48.269 102.548 47.6586 102.548 47.0221C102.548 46.3856 102.295 45.7751 101.845 45.325C101.395 44.8749 100.785 44.6221 100.148 44.6221C99.5115 44.6221 98.901 44.8749 98.4509 45.325C98.0008 45.7751 97.748 46.3856 97.748 47.0221C97.748 47.6586 98.0008 48.269 98.4509 48.7191C98.901 49.1692 99.5115 49.4221 100.148 49.4221Z" fill="#3888FF"/>
  <path d="M185.582 131.154C181.928 131.154 178.382 131.154 174.572 131.106C170.6 131.106 166.496 131.052 162.092 131.052C156.278 131.052 154.454 128.274 154.454 123.252C154.454 122.82 154.484 115.344 154.484 115.344C154.718 117.774 156.32 121.434 161.168 123.252C166.676 125.316 197.234 131.142 197.234 131.142C195.554 131.148 187.238 131.154 185.582 131.154Z" fill="#3888FF"/>
</svg>