<svg xmlns="http://www.w3.org/2000/svg" width="18" height="18" viewBox="0 0 18 18" fill="none">
  <path fill-rule="evenodd" clip-rule="evenodd" d="M4.53334 1.78699C4.66686 1.6344 4.85975 1.54688 5.0625 1.54688H12.9375C13.1403 1.54688 13.3331 1.6344 13.4667 1.78699L17.4042 6.28699C17.6361 6.55208 17.6361 6.94791 17.4042 7.21301L9.52915 16.213C9.39564 16.3656 9.20275 16.4531 9 16.4531C8.79725 16.4531 8.60436 16.3656 8.47084 16.213L0.595844 7.21301C0.363885 6.94791 0.363885 6.55208 0.595845 6.28699L4.53334 1.78699ZM5.38156 2.95312L2.67452 6.04687H5.97115L7.77583 2.95312H5.38156ZM9 3.64545L7.59917 6.04687H10.4008L9 3.64545ZM10.6875 7.45312H7.3125L9 13.2388L10.6875 7.45312ZM7.43422 12.8928L5.84766 7.45312H2.67452L7.43422 12.8928ZM10.5658 12.8928L12.1523 7.45312H15.3255L10.5658 12.8928ZM15.3255 6.04687H12.0289L10.2242 2.95312H12.6184L15.3255 6.04687Z" fill="#1A1A1A"/>
</svg>