<svg width="18" height="18" viewBox="0 0 18 18" fill="none" xmlns="http://www.w3.org/2000/svg">
<g id="Group 2533">
<g id="Union">
<path d="M12.6563 7.875C12.6563 5.23439 10.5156 3.09375 7.875 3.09375C5.23439 3.09375 3.09375 5.23439 3.09375 7.875C3.09375 10.5156 5.23439 12.6562 7.875 12.6562C10.5156 12.6562 12.6563 10.5156 12.6563 7.875ZM11.7248 12.7193C10.6682 13.5601 9.33027 14.0625 7.875 14.0625C4.45774 14.0625 1.6875 11.2923 1.6875 7.875C1.6875 4.45774 4.45774 1.6875 7.875 1.6875C11.2923 1.6875 14.0625 4.45774 14.0625 7.875C14.0625 9.33033 13.5601 10.6683 12.7192 11.7249L16.3493 15.355C16.4372 15.4429 16.4372 15.5854 16.3493 15.6732L15.6731 16.3494C15.5853 16.4373 15.4428 16.4373 15.3549 16.3494L11.7248 12.7193Z" fill="#B8B8B8"/>
</g>
</g>
</svg>
