<svg width="18" height="18" viewBox="0 0 18 18" fill="none" xmlns="http://www.w3.org/2000/svg">
<path fill-rule="evenodd" clip-rule="evenodd" d="M8.69067 0.588756C8.88211 0.478227 9.11797 0.478227 9.30941 0.588756L16.1294 4.52626C16.3208 4.63679 16.4387 4.84105 16.4387 5.06211V12.9371C16.4387 13.1582 16.3208 13.3624 16.1294 13.473L9.30941 17.4105C9.11797 17.521 8.88211 17.521 8.69067 17.4105L1.87072 13.473C1.67927 13.3624 1.56134 13.1582 1.56134 12.9371V5.06211C1.56134 4.84105 1.67927 4.63679 1.87072 4.52626L8.69067 0.588756ZM2.79884 6.09245L8.38129 9.0642V15.8029L2.79884 12.5799V6.09245ZM9.61879 15.8029L15.2012 12.5799V6.09245L9.61879 9.0642V15.8029ZM9.00004 7.99166L14.5445 5.04016L9.00004 1.83908L3.45561 5.04016L9.00004 7.99166Z" fill="#1A1A1A"/>
</svg>
