<svg width="9" height="8" viewBox="0 0 9 8" fill="none" xmlns="http://www.w3.org/2000/svg">
<g id="Group 48097338">
<path id="Union" d="M2.2553 0.641132C2.15767 0.543501 1.99937 0.543501 1.90174 0.641132L0.841083 1.70179C0.743452 1.79942 0.743452 1.95771 0.841083 2.05535L2.78563 3.99989L0.841083 5.94443C0.743452 6.04206 0.743452 6.20036 0.841083 6.29799L1.90174 7.35865C1.99937 7.45628 2.15767 7.45628 2.2553 7.35865L4.19984 5.4141L6.14438 7.35865C6.24202 7.45628 6.40031 7.45628 6.49794 7.35865L7.5586 6.29799C7.65623 6.20036 7.65623 6.04206 7.5586 5.94443L5.61405 3.99989L7.5586 2.05535C7.65623 1.95771 7.65623 1.79942 7.5586 1.70179L6.49794 0.641132C6.40031 0.543501 6.24202 0.543501 6.14438 0.641132L4.19984 2.58568L2.2553 0.641132Z" fill="#434343"/>
</g>
</svg>
