<svg xmlns="http://www.w3.org/2000/svg" width="18" height="18" viewBox="0 0 18 18" fill="none">
  <path d="M9 15.4687C12.5726 15.4687 15.4688 12.5726 15.4688 9C15.4688 5.42741 12.5726 2.53125 9 2.53125C5.42741 2.53125 2.53125 5.42741 2.53125 9C2.53125 12.5726 5.42741 15.4687 9 15.4687ZM9 16.875C4.65076 16.875 1.125 13.3492 1.125 9C1.125 4.65076 4.65076 1.125 9 1.125C13.3492 1.125 16.875 4.65076 16.875 9C16.875 13.3492 13.3492 16.875 9 16.875ZM9.78992 11.5312V8.1C9.78992 7.97574 9.68918 7.875 9.56492 7.875H7.90307C7.77881 7.875 7.67807 7.97574 7.67807 8.1V9.05625C7.67807 9.18051 7.77881 9.28125 7.90307 9.28125H8.38367V11.5312H7.90307C7.77881 11.5312 7.67807 11.632 7.67807 11.7562V12.7125C7.67807 12.8368 7.77881 12.9375 7.90307 12.9375H10.0968C10.2211 12.9375 10.3218 12.8368 10.3218 12.7125V11.7562C10.3218 11.632 10.2211 11.5312 10.0968 11.5312H9.78992ZM9.00011 7.0875C9.5593 7.0875 10.0126 6.63419 10.0126 6.075C10.0126 5.51581 9.5593 5.0625 9.00011 5.0625C8.44092 5.0625 7.98761 5.51581 7.98761 6.075C7.98761 6.63419 8.44092 7.0875 9.00011 7.0875Z" fill="#1A1A1A"/>
</svg>