<svg xmlns="http://www.w3.org/2000/svg" width="186" height="32" viewBox="0 0 186 32" fill="none">
  <path fill-rule="evenodd" clip-rule="evenodd" d="M109.372 4.26866C109.876 4.73286 110.501 4.96497 111.246 4.96497C111.992 4.96497 112.606 4.73286 113.09 4.26866C113.594 3.78426 113.845 3.18887 113.845 2.48247C113.845 1.77607 113.594 1.19076 113.09 0.726554C112.606 0.242164 111.992 -3.05176e-05 111.246 -3.05176e-05C110.501 -3.05176e-05 109.876 0.242164 109.372 0.726554C108.889 1.19076 108.647 1.77607 108.647 2.48247C108.647 3.18887 108.889 3.78426 109.372 4.26866ZM113.332 23.7351V6.96307H109.1V23.7351H113.332ZM147.347 7.4475C146.4 6.94293 145.302 6.69064 144.052 6.69064C142.622 6.69064 141.322 7.04384 140.153 7.75025C139.005 8.45665 138.088 9.46579 137.403 10.7777C136.738 12.0896 136.406 13.5932 136.406 15.2886C136.406 17.0041 136.738 18.5279 137.403 19.86C138.088 21.1719 139.015 22.1911 140.184 22.9177C141.352 23.6443 142.642 24.0076 144.052 24.0076C145.281 24.0076 146.369 23.7452 147.316 23.2204C148.284 22.6957 149.039 22.0397 149.583 21.2526V23.8562C149.583 25.3497 149.2 26.4598 148.435 27.1864C147.669 27.9332 146.672 28.3065 145.443 28.3065C144.395 28.3065 143.498 28.0744 142.753 27.6102C142.027 27.1662 141.554 26.5607 141.332 25.7938H137.131C137.333 27.7111 138.189 29.2249 139.7 30.3349C141.231 31.445 143.186 32 145.563 32C147.337 32 148.848 31.6367 150.097 30.9101C151.346 30.2037 152.283 29.235 152.908 28.0038C153.532 26.7928 153.845 25.4103 153.845 23.8562V6.96311H149.583V9.35479C149.039 8.56765 148.294 7.93189 147.347 7.4475ZM148.979 12.7152C149.382 13.4418 149.583 14.3198 149.583 15.3491C149.583 16.3784 149.382 17.2665 148.979 18.0133C148.576 18.7398 148.032 19.305 147.347 19.7086C146.662 20.0921 145.926 20.2838 145.14 20.2838C144.375 20.2838 143.649 20.082 142.964 19.6783C142.299 19.2747 141.755 18.6995 141.332 17.9527C140.929 17.1858 140.728 16.2977 140.728 15.2886C140.728 14.2794 140.929 13.4116 141.332 12.685C141.755 11.9382 142.299 11.3731 142.964 10.9896C143.629 10.6061 144.355 10.4144 145.14 10.4144C145.926 10.4144 146.662 10.6162 147.347 11.0199C148.032 11.4034 148.576 11.9685 148.979 12.7152ZM173.542 14.9858C173.542 15.5913 173.501 16.1362 173.421 16.6206H161.18C161.281 17.8316 161.704 18.7802 162.45 19.4664C163.195 20.1526 164.112 20.4958 165.2 20.4958C166.772 20.4958 167.89 19.8196 168.555 18.4674H173.119C172.635 20.082 171.708 21.4141 170.338 22.4636C168.968 23.4929 167.286 24.0076 165.291 24.0076C163.679 24.0076 162.228 23.6544 160.939 22.948C159.669 22.2214 158.672 21.2022 157.946 19.8903C157.241 18.5784 156.889 17.0647 156.889 15.3491C156.889 13.6134 157.241 12.0896 157.946 10.7777C158.652 9.46579 159.639 8.45665 160.908 7.75025C162.178 7.04384 163.639 6.69064 165.291 6.69064C166.883 6.69064 168.303 7.03375 169.552 7.71997C170.822 8.40619 171.799 9.38506 172.484 10.6566C173.189 11.9079 173.542 13.351 173.542 14.9858ZM169.159 13.7748C169.139 12.685 168.746 11.8171 167.981 11.1712C167.215 10.5052 166.278 10.1722 165.17 10.1722C164.122 10.1722 163.236 10.4951 162.51 11.141C161.805 11.7666 161.372 12.6446 161.211 13.7748H169.159ZM180.862 9.56671C181.406 8.67866 182.111 7.98235 182.978 7.47778C183.864 6.9732 184.872 6.72092 186 6.72092V11.1712H184.882C183.552 11.1712 182.545 11.4841 181.859 12.1098C181.195 12.7354 180.862 13.8253 180.862 15.3794V23.7351H176.631V6.96311H180.862V9.56671ZM126.79 6.72092C128.785 6.72092 130.397 7.35668 131.626 8.6282C132.855 9.87954 133.47 11.6355 133.47 13.8959V23.7351H129.238V14.4712C129.238 13.1391 128.906 12.1198 128.241 11.4134C127.576 10.6869 126.669 10.3236 125.521 10.3236C124.352 10.3236 123.425 10.6869 122.74 11.4134C122.075 12.1198 121.743 13.1391 121.743 14.4712V23.7351H117.512V6.96311H121.743V9.05204C122.307 8.32546 123.022 7.76034 123.889 7.35668C124.775 6.93284 125.743 6.72092 126.79 6.72092ZM87.5293 15.2885C87.5293 13.5931 87.8618 12.0895 88.5267 10.7776C89.2117 9.46571 90.1386 8.45657 91.3072 7.75017C92.4759 7.04376 93.7755 6.69056 95.206 6.69056C96.2941 6.69056 97.3318 6.93276 98.3191 7.41715C99.3064 7.88135 100.092 8.50702 100.676 9.29416V1.332H104.968V23.735H100.676V21.2525C100.153 22.08 99.4172 22.7461 98.4702 23.2506C97.5232 23.7552 96.425 24.0075 95.1758 24.0075C93.7654 24.0075 92.4759 23.6442 91.3072 22.9176C90.1386 22.191 89.2117 21.1718 88.5267 19.8599C87.8618 18.5278 87.5293 17.004 87.5293 15.2885ZM100.707 15.349C100.707 14.3197 100.505 13.4417 100.102 12.7152C99.6993 11.9684 99.1552 11.4033 98.4702 11.0198C97.7851 10.6161 97.0497 10.4143 96.2639 10.4143C95.4781 10.4143 94.7527 10.606 94.0878 10.9895C93.4229 11.373 92.8788 11.9381 92.4557 12.6849C92.0527 13.4115 91.8512 14.2793 91.8512 15.2885C91.8512 16.2976 92.0527 17.1857 92.4557 17.9526C92.8788 18.6994 93.4229 19.2746 94.0878 19.6783C94.7728 20.0819 95.4982 20.2838 96.2639 20.2838C97.0497 20.2838 97.7851 20.092 98.4702 19.7085C99.1552 19.3049 99.6993 18.7398 100.102 18.0132C100.505 17.2664 100.707 16.3784 100.707 15.349ZM72.4267 22.948C73.7163 23.6544 75.167 24.0076 76.7789 24.0076C78.411 24.0076 79.8818 23.6544 81.1915 22.948C82.5214 22.2214 83.5691 21.2022 84.3348 19.8903C85.1206 18.5784 85.5135 17.0647 85.5135 15.3491C85.5135 13.6336 85.1306 12.1198 84.365 10.808C83.6195 9.49607 82.5919 8.48692 81.2822 7.78052C79.9725 7.05394 78.5117 6.69064 76.8998 6.69064C75.2879 6.69064 73.8271 7.05394 72.5174 7.78052C71.2077 8.48692 70.1701 9.49607 69.4044 10.808C68.6589 12.1198 68.2861 13.6336 68.2861 15.3491C68.2861 17.0647 68.6488 18.5784 69.3742 19.8903C70.1197 21.2022 71.1372 22.2214 72.4267 22.948ZM78.9248 19.7692C78.2599 20.1325 77.5446 20.3141 76.7789 20.3141C75.57 20.3141 74.5625 19.8903 73.7566 19.0426C72.9708 18.1747 72.5779 16.9436 72.5779 15.3491C72.5779 13.7547 72.9808 12.5336 73.7868 11.6859C74.6129 10.818 75.6304 10.3841 76.8394 10.3841C78.0483 10.3841 79.0658 10.818 79.8919 11.6859C80.7382 12.5336 81.1613 13.7547 81.1613 15.3491C81.1613 16.4188 80.9598 17.327 80.5568 18.0738C80.1539 18.8206 79.6098 19.3857 78.9248 19.7692ZM61.3555 9.56671C61.8996 8.67866 62.6048 7.98235 63.4712 7.47778C64.3577 6.9732 65.3652 6.72092 66.4935 6.72092V11.1712H65.3753C64.0454 11.1712 63.038 11.4841 62.3529 12.1098C61.688 12.7354 61.3555 13.8253 61.3555 15.3794V23.7351H57.1243V6.96311H61.3555V9.56671ZM49.9571 7.56852C48.9698 7.0034 47.8414 6.72084 46.572 6.72084C45.4638 6.72084 44.4564 6.93276 43.5497 7.3566C42.643 7.76026 41.9176 8.32538 41.3736 9.05196V1.332H37.1423V23.735H41.3736V14.4711C41.3736 13.139 41.7061 12.1198 42.371 11.4134C43.056 10.6868 43.9829 10.3235 45.1515 10.3235C46.3 10.3235 47.2067 10.6868 47.8716 11.4134C48.5366 12.1198 48.869 13.139 48.869 14.4711V23.735H53.1003V13.8959C53.1003 12.3821 52.8182 11.0904 52.254 10.0207C51.71 8.93087 50.9444 8.11346 49.9571 7.56852ZM17.8733 15.3491C17.8733 13.6134 18.2259 12.0997 18.9311 10.808C19.6363 9.49607 20.6135 8.48692 21.8628 7.78052C23.112 7.05394 24.5426 6.69064 26.1545 6.69064C28.2298 6.69064 29.9425 7.2154 31.2925 8.26491C32.6626 9.29424 33.5794 10.7474 34.0428 12.6244H29.4791C29.2373 11.8978 28.8242 11.3327 28.2399 10.9291C27.6757 10.5052 26.9705 10.2933 26.1243 10.2933C24.9153 10.2933 23.9583 10.7373 23.2531 11.6254C22.5478 12.4932 22.1952 13.7345 22.1952 15.3491C22.1952 16.9436 22.5478 18.1848 23.2531 19.0729C23.9583 19.9407 24.9153 20.3747 26.1243 20.3747C27.8369 20.3747 28.9552 19.6077 29.4791 18.0738H34.0428C33.5794 19.8903 32.6626 21.3333 31.2925 22.403C29.9224 23.4727 28.2097 24.0076 26.1545 24.0076C24.5426 24.0076 23.112 23.6544 21.8628 22.948C20.6135 22.2214 19.6363 21.2122 18.9311 19.9205C18.2259 18.6087 17.8733 17.0848 17.8733 15.3491ZM3.83837 23.1902C5.02716 23.6948 6.35699 23.947 7.82786 23.947C9.37933 23.947 10.7192 23.6645 11.8476 23.0994C12.9759 22.5141 13.8322 21.737 14.4166 20.7682C15.0009 19.7995 15.293 18.7499 15.293 17.6197C15.293 16.3078 14.9807 15.2482 14.3561 14.4409C13.7315 13.6336 12.986 13.0281 12.1196 12.6244C11.2532 12.2208 10.1349 11.8171 8.76479 11.4135C7.75734 11.1107 6.97153 10.8483 6.40736 10.6263C5.86334 10.3841 5.39991 10.0814 5.01708 9.71809C4.6544 9.33461 4.47306 8.86032 4.47306 8.29519C4.47306 7.48788 4.71485 6.8723 5.19842 6.44846C5.70215 6.02462 6.36706 5.8127 7.19317 5.8127C8.14017 5.8127 8.89575 6.05489 9.45992 6.53928C10.0442 7.00349 10.3566 7.59889 10.3968 8.32547H15.0513C14.9102 6.42828 14.1546 4.95492 12.7845 3.90541C11.4345 2.83572 9.67149 2.30087 7.4954 2.30087C6.04468 2.30087 4.75515 2.55316 3.62681 3.05773C2.49847 3.54212 1.62199 4.24852 0.997372 5.17694C0.372755 6.10535 0.0604468 7.19523 0.0604468 8.44657C0.0604468 9.77864 0.362681 10.8483 0.967149 11.6556C1.59177 12.4428 2.3272 13.0382 3.17346 13.4418C4.03986 13.8253 5.15813 14.2189 6.52825 14.6225C7.5357 14.9051 8.32151 15.1675 8.88568 15.4097C9.47 15.6317 9.95357 15.9445 10.3364 16.3482C10.7192 16.7518 10.9106 17.2665 10.9106 17.8922C10.9106 18.6591 10.6286 19.2848 10.0644 19.7692C9.50022 20.2334 8.72449 20.4655 7.73719 20.4655C6.77004 20.4655 6.00438 20.2132 5.44021 19.7086C4.89619 19.2041 4.59396 18.5178 4.53351 17.65H0C0.0201489 18.9417 0.372755 20.0618 1.05782 21.0104C1.74288 21.959 2.66973 22.6856 3.83837 23.1902Z" fill="#1A1A1A"/>
</svg>