<svg width="80" height="80" viewBox="0 0 80 80" fill="none" xmlns="http://www.w3.org/2000/svg">
<g clip-path="url(#clip0_19063_56408)">
<mask id="mask0_19063_56408" style="mask-type:alpha" maskUnits="userSpaceOnUse" x="-2" y="0" width="99" height="90">
<path d="M94.5488 17.9128C101.364 26.4016 90.1225 52.1985 66.8031 70.8013C43.4837 89.4041 16.917 93.768 10.1018 85.2792C3.28684 76.7908 -12.7424 26.1805 10.5768 7.57769C33.8962 -11.0253 87.7336 9.42396 94.5488 17.9128Z" fill="#85FA4D"/>
</mask>
<g mask="url(#mask0_19063_56408)">
<path fill-rule="evenodd" clip-rule="evenodd" d="M45.5014 39.6314C42.1814 40.1375 38.8436 38.8339 36.7455 36.2119L15.3807 9.51562L1.96734 43.8652C1.40609 45.3023 1.73265 47.4445 2.6968 48.6491L19.9959 70.2652C23.5301 74.681 29.1511 76.8761 34.7424 76.0237L62.1125 71.8503C63.6377 71.6177 65.3291 70.2637 65.8906 68.8266L78.2116 34.4102L45.5014 39.6314Z" fill="#E5EFFF"/>
<mask id="mask1_19063_56408" style="mask-type:alpha" maskUnits="userSpaceOnUse" x="1" y="9" width="78" height="68">
<path fill-rule="evenodd" clip-rule="evenodd" d="M40.1364 40.4487L15.3809 9.51514L1.96745 43.8647C1.4062 45.3019 1.73281 47.444 2.69691 48.6486L19.9961 70.2647C23.5303 74.6805 29.1513 76.8756 34.7425 76.0232L62.1127 71.8498C63.6379 71.6173 65.3293 70.2632 65.8908 68.8261L78.4776 34.2236L40.1364 40.4487Z" fill="#D9D9D9"/>
</mask>
<g mask="url(#mask1_19063_56408)">
<path d="M49.0982 20.6191L78.0878 34.3318L58.3592 90.0331L26.8043 77.7113L49.0982 20.6191Z" fill="#3888FF"/>
<path d="M42.2234 36.3056L41.5729 36.0513L25.5035 77.2032L26.1541 77.4575L42.2234 36.3056Z" fill="#3888FF"/>
</g>
<path fill-rule="evenodd" clip-rule="evenodd" d="M28.8981 45.2656C30.3016 46.978 30.8062 50.0457 30.025 52.1174C29.2438 54.1891 27.4727 54.4804 26.0691 52.768L24.2208 50.5131C22.8172 48.8007 22.3127 45.733 23.0939 43.6613C23.8751 41.5896 25.6462 41.2983 27.0498 43.0107L28.8981 45.2656ZM29.307 47.4064C29.2891 47.2347 29.2647 47.0639 29.2336 46.8945C29.9114 48.3099 30.0756 50.194 29.5629 51.5537C29.0502 52.9134 28.0163 53.3358 27.0345 52.7264C27.1335 52.7157 27.2308 52.6934 27.3261 52.6598C27.972 52.4323 28.495 51.702 28.8698 50.7081C29.2446 49.7141 29.4284 48.57 29.307 47.4064ZM23.556 44.2251C23.0432 45.5848 23.2075 47.4688 23.8853 48.8843C23.8542 48.7148 23.8298 48.544 23.8119 48.3723C23.6905 47.2087 23.8743 46.0646 24.2491 45.0707C24.6239 44.0767 25.1468 43.3464 25.7927 43.1189C25.8881 43.0854 25.9853 43.063 26.0843 43.0523C25.1026 42.443 24.0687 42.8653 23.556 44.2251Z" fill="#1A1A1A"/>
<path fill-rule="evenodd" clip-rule="evenodd" d="M19.3973 39.1514C20.1785 37.0797 19.674 34.012 18.2704 32.2996L16.4221 30.0447C15.0185 28.3323 13.2474 28.6236 12.4662 30.6953C11.685 32.767 12.1896 35.8347 13.5931 37.5471L15.4414 39.802C16.845 41.5144 18.6161 41.2231 19.3973 39.1514ZM18.6059 33.9285C18.637 34.0979 18.6614 34.2687 18.6793 34.4404C18.8007 35.604 18.6169 36.7481 18.2421 37.742C17.8673 38.736 17.3444 39.4663 16.6984 39.6938C16.6031 39.7273 16.5059 39.7497 16.4069 39.7604C17.3886 40.3697 18.4225 39.9474 18.9352 38.5877C19.4479 37.2279 19.2837 35.3439 18.6059 33.9285ZM13.2576 35.9182C12.5798 34.5028 12.4156 32.6188 12.9283 31.259C13.441 29.8993 14.4749 29.477 15.4567 30.0863C15.3577 30.097 15.2604 30.1194 15.1651 30.1529C14.5191 30.3804 13.9962 31.1107 13.6214 32.1046C13.2466 33.0986 13.0628 34.2427 13.1842 35.4063C13.2021 35.578 13.2265 35.7488 13.2576 35.9182Z" fill="#1A1A1A"/>
<path d="M18.4689 46.9809C18.611 46.6043 18.933 46.5513 19.1882 46.8626C19.4434 47.174 19.5351 47.7317 19.3931 48.1084L18.8787 49.4725C18.1686 51.3559 18.6272 54.1447 19.9032 55.7014C20.1584 56.0127 20.2501 56.5705 20.1081 56.9472C19.9661 57.3238 19.644 57.3768 19.3889 57.0655C18.2123 55.63 17.5321 53.4463 17.4889 51.3693C16.4001 52.0652 15.0206 51.736 13.844 50.3006C13.5888 49.9892 13.497 49.4315 13.6391 49.0548C13.7811 48.6781 14.1031 48.6252 14.3583 48.9365C15.6343 50.4932 17.2444 50.2284 17.9546 48.345L18.4689 46.9809Z" fill="#1A1A1A"/>
<path fill-rule="evenodd" clip-rule="evenodd" d="M15.3807 9.51562L1.96733 43.8652C1.40607 45.3023 1.73269 47.4445 2.69679 48.6491L20.7098 71.1572C23.8022 75.0214 28.7207 76.9419 33.6129 76.1958L62.1125 71.8502C63.6377 71.6177 65.3291 70.2637 65.8906 68.8265L78.9378 33.5964L45.5014 39.6314C42.1814 40.1375 38.8441 38.8339 36.7455 36.2124L15.3807 9.51562ZM15.6043 10.983L2.65859 44.1353C2.43647 44.7037 2.37606 45.4616 2.49366 46.2324C2.6112 47.0037 2.89467 47.7086 3.27615 48.1855L21.2891 70.6936C24.2158 74.3505 28.8711 76.1681 33.5011 75.4622L62.0007 71.1166C62.6042 71.0246 63.2904 70.6981 63.8994 70.2108C64.5084 69.7235 64.9774 69.1254 65.1995 68.5564L77.7791 34.5235L45.6132 40.3646C42.0315 40.9113 38.43 39.5048 36.1662 36.676L15.6043 10.983Z" fill="#040809"/>
<path d="M50.4827 3.41086C53.1838 2.99926 56.7571 4.39436 58.4644 6.52757L78.0794 31.0377C79.7866 33.171 78.9812 35.2339 76.2801 35.646L44.5416 40.4853C41.841 40.8974 38.2672 39.5018 36.5599 37.3686L16.9449 12.8589C15.2382 10.7257 16.0436 8.66226 18.7447 8.25066L50.4827 3.41086Z" fill="#E5EFFF"/>
<path fill-rule="evenodd" clip-rule="evenodd" d="M77.3457 31.1495L57.7308 6.63937C56.2798 4.82624 53.2422 3.64041 50.9462 3.99017L19.2083 8.82997C16.9123 9.17974 16.2276 10.9335 17.6786 12.7471L37.2936 37.2568C38.7446 39.0699 41.7821 40.2563 44.0781 39.906L75.8166 35.0667C78.112 34.7164 78.7972 32.9627 77.3457 31.1495ZM58.4644 6.52757C56.7571 4.39436 53.1838 2.99926 50.4827 3.41086L18.7447 8.25066C16.0436 8.66226 15.2382 10.7257 16.9449 12.8589L36.5599 37.3686C38.2672 39.5018 41.841 40.8974 44.5416 40.4853L76.2801 35.646C78.9812 35.2339 79.7866 33.171 78.0794 31.0377L58.4644 6.52757Z" fill="#040809"/>
<path d="M49.9458 5.95217C52.1067 5.62269 54.9657 6.73926 56.3316 8.44554L73.6417 30.0755C75.0071 31.7822 74.3624 33.4326 72.202 33.7621L44.781 37.9434C42.62 38.2729 39.7616 37.1563 38.3957 35.4501L21.0856 13.8201C19.7197 12.1134 20.3643 10.463 22.5252 10.1335L49.9458 5.95217Z" fill="#3888FF"/>
<path fill-rule="evenodd" clip-rule="evenodd" d="M72.908 30.1873L55.5979 8.55734C54.4883 7.17115 52.1651 6.26384 50.4098 6.53148L22.9887 10.7128C21.233 10.9805 20.7096 12.3216 21.8192 13.7083L39.1293 35.3383C40.239 36.7244 42.5617 37.6318 44.3174 37.3641L71.738 33.1828C73.4937 32.9151 74.0176 31.574 72.908 30.1873ZM56.3316 8.44554C54.9657 6.73926 52.1067 5.62269 49.9458 5.95217L22.5252 10.1335C20.3643 10.463 19.7197 12.1134 21.0856 13.8201L38.3957 35.4501C39.7616 37.1563 42.62 38.2729 44.781 37.9434L72.202 33.7621C74.3624 33.4326 75.0071 31.7822 73.6417 30.0755L56.3316 8.44554Z" fill="#040809"/>
<mask id="mask2_19063_56408" style="mask-type:alpha" maskUnits="userSpaceOnUse" x="20" y="5" width="55" height="34">
<path d="M49.9469 5.95316C52.1078 5.62368 54.9663 6.73976 56.3322 8.44653L73.6423 30.0765C75.0082 31.7827 74.3636 33.4336 72.2027 33.7631L44.7821 37.9444C42.6212 38.2739 39.7622 37.1573 38.3963 35.4506L21.0862 13.8211C19.7208 12.1143 20.3649 10.464 22.5258 10.1345L49.9469 5.95316Z" fill="#F8FFF4"/>
</mask>
<g mask="url(#mask2_19063_56408)">
<path d="M62.4123 -0.98877L84.1244 26.1416L38.0436 63.0192L16.3315 35.889L62.4123 -0.98877Z" fill="#040713"/>
</g>
<path fill-rule="evenodd" clip-rule="evenodd" d="M72.908 30.1873L55.5979 8.55734C54.4883 7.17115 52.1651 6.26384 50.4098 6.53148L22.9887 10.7128C21.233 10.9805 20.7096 12.3216 21.8192 13.7083L39.1293 35.3383C40.239 36.7244 42.5617 37.6318 44.3174 37.3641L71.738 33.1828C73.4937 32.9151 74.0176 31.574 72.908 30.1873ZM56.3316 8.44554C54.9657 6.73926 52.1067 5.62269 49.9458 5.95217L22.5252 10.1335C20.3643 10.463 19.7197 12.1134 21.0856 13.8201L38.3957 35.4501C39.7616 37.1563 42.62 38.2729 44.781 37.9434L72.202 33.7621C74.3624 33.4326 75.0071 31.7822 73.6417 30.0755L56.3316 8.44554Z" fill="#040809"/>
<path d="M26.2345 24.1839L28.4753 22.5032C30.3999 21.0598 32.4742 20.0746 34.6476 19.5715L39.0578 18.5508C39.3019 18.4943 39.5674 18.76 39.6802 19.1739C41.2789 25.0375 41.584 31.3027 40.5344 36.715L40.094 38.9861C39.9127 39.9212 39.2203 40.169 38.6726 39.4948L26.2345 24.1839Z" fill="#040809"/>
<path d="M26.2345 24.1839L26.7868 22.5665C28.666 17.063 28.3928 9.70483 26.0733 3.3507C25.9504 3.01403 25.7188 2.82197 25.5132 2.88624L23.2738 3.58649C20.5128 4.44981 18.1206 6.73372 16.3995 10.1496L15.8416 11.257L26.2345 24.1839Z" fill="#040809"/>
<path d="M26.2345 24.1839L38.6726 39.4948C39.2203 40.169 39.9127 39.9212 40.094 38.9861L40.5344 36.715C41.584 31.3027 41.2789 25.0375 39.6802 19.1739V19.1739C39.5674 18.76 39.3019 18.4943 39.0578 18.5508L34.6476 19.5715C32.4742 20.0746 30.3999 21.0598 28.4753 22.5032L26.2345 24.1839ZM26.2345 24.1839L15.8416 11.257L16.3995 10.1496C18.1206 6.73372 20.5128 4.44981 23.2738 3.58649L25.5132 2.88624C25.7188 2.82197 25.9504 3.01403 26.0733 3.3507V3.3507C28.3928 9.70483 28.666 17.063 26.7868 22.5665L26.2345 24.1839Z" stroke="#E5EFFF" stroke-width="0.770931" stroke-linejoin="round"/>
</g>
</g>
<defs>
<clipPath id="clip0_19063_56408">
<rect width="80" height="80" fill="white"/>
</clipPath>
</defs>
</svg>
