<svg width="280" height="140" viewBox="0 0 280 140" fill="none" xmlns="http://www.w3.org/2000/svg">
<path d="M230.286 91.4611C230.946 92.3084 231.467 92.858 231.808 93.0229C231.341 92.542 230.832 92.0196 230.286 91.4611C225.466 85.2724 213.214 63.2035 209.223 59.1527C204.686 54.5477 196.211 49.0411 181.728 55.7311C187.192 54.9152 192.361 53.3692 202.239 63.2141C209.584 70.5337 223.106 84.1122 230.286 91.4611Z" fill="#92FC8C"/>
<path fill-rule="evenodd" clip-rule="evenodd" d="M231.617 93.392L232.098 92.7126C231.635 92.2359 231.131 91.7186 230.591 91.166C228.423 88.3777 224.739 82.3591 220.97 76.2005C220.576 75.5573 220.182 74.9128 219.788 74.2701C217.707 70.8733 215.648 67.5383 213.859 64.7985C212.079 62.0709 210.545 59.8986 209.514 58.8534C207.217 56.5221 203.905 53.9445 199.317 52.806C194.723 51.666 188.89 51.9789 181.577 55.3564L181.774 56.1489C182.106 56.0992 182.436 56.0473 182.765 55.9956C185.162 55.6179 187.481 55.2527 190.226 55.887C193.34 56.6069 197.04 58.629 201.95 63.5211C209.287 70.8324 222.792 84.3901 229.973 91.738C230.302 92.1594 230.602 92.5144 230.867 92.7884C231.128 93.0579 231.382 93.2785 231.617 93.392ZM227.096 87.6047C219.609 80.0025 208.81 69.1684 202.529 62.9106C197.563 57.9615 193.741 55.8361 190.436 55.0722C188.445 54.6121 186.656 54.6517 184.956 54.8442C190.69 52.753 195.346 52.6875 199.095 53.6181C203.498 54.7106 206.691 57.1872 208.93 59.4589C209.895 60.4385 211.388 62.5422 213.177 65.2827C214.958 68.0117 217.012 71.3376 219.094 74.7351C219.491 75.382 219.888 76.0316 220.285 76.6803C222.706 80.6362 225.106 84.5589 227.096 87.6047Z" fill="#3888FF"/>
<path d="M182.884 65.765C191.165 45.991 204.104 53.1556 209.736 59.0664C196.377 43.5383 178.207 55.9928 171.373 61.121C164.54 66.2495 162.844 78.4644 148.697 76.8293C134.551 75.1942 134.267 86.8242 124.958 89.3297C117.511 91.3344 111.841 89.3604 110.279 88.4714C111.317 89.0619 110.881 90.5271 114.75 93.8396C128.214 106.792 142.008 101.373 147.491 93.828C152.974 86.2835 157.949 88.1647 162.585 86.7277C173.63 83.2162 176.44 78.3123 182.884 65.765Z" fill="#92FC8C"/>
<path fill-rule="evenodd" clip-rule="evenodd" d="M209.436 59.3646L210.04 58.7892C203.247 50.8929 195.203 50.108 188.023 51.9509C180.872 53.7859 174.564 58.2262 171.142 60.7944C169.379 62.1174 167.96 63.8874 166.616 65.7335C166.269 66.2093 165.927 66.689 165.587 67.1686C164.593 68.5658 163.602 69.9606 162.481 71.2453C160.984 72.9604 159.281 74.4463 157.101 75.4083C154.924 76.3695 152.239 76.8213 148.761 76.4193C145.17 76.0042 142.429 76.4283 140.193 77.3591C137.958 78.2888 136.26 79.7114 134.739 81.2384C134.136 81.8444 133.556 82.4721 132.984 83.0913C132.837 83.2497 132.692 83.4077 132.546 83.5644C131.827 84.3379 131.11 85.0902 130.347 85.7859C128.823 87.1723 127.119 88.3256 124.875 88.9295C117.538 90.9042 111.974 88.9503 110.493 88.1073L110.077 88.8342C110.257 88.9369 110.383 89.0784 110.531 89.3216C110.604 89.4433 110.679 89.5818 110.77 89.7507L110.778 89.7661C110.871 89.9393 110.979 90.1376 111.109 90.3583C111.636 91.2508 112.521 92.475 114.479 94.1528C121.279 100.69 128.2 102.623 134.146 101.929C140.081 101.236 145.004 97.9301 147.814 94.0643C150.498 90.3717 153.029 89.0151 155.441 88.3878C156.597 88.0869 157.733 87.9521 158.878 87.8161C158.942 87.8082 159.008 87.8007 159.072 87.7927C160.274 87.6494 161.489 87.4944 162.688 87.1229L162.691 87.122C168.262 85.3504 171.799 83.2127 174.753 79.9072C177.686 76.6242 180.025 72.2071 183.24 65.9475L183.248 65.9323L183.254 65.9165C185.306 61.0167 187.63 57.8252 190.024 55.8674C192.411 53.9156 194.884 53.1735 197.279 53.2017C202.098 53.2581 206.649 56.4395 209.436 59.3646ZM111.572 89.4934C114.143 90.4137 119.031 91.3492 125.051 89.7291C127.461 89.0803 129.281 87.8402 130.871 86.3932C131.664 85.6717 132.401 84.8968 133.122 84.1206C133.271 83.9601 133.419 83.7998 133.567 83.6397C134.138 83.022 134.704 82.4094 135.295 81.8163C136.777 80.3271 138.383 78.9925 140.471 78.1234C142.557 77.2555 145.156 76.839 148.637 77.2413C152.232 77.657 155.064 77.1951 157.396 76.1658C159.726 75.1372 161.526 73.5558 163.075 71.7811C164.228 70.4607 165.256 69.0143 166.256 67.6076C166.592 67.1348 166.925 66.6668 167.258 66.2092C168.595 64.3742 169.95 62.6947 171.603 61.4538C175.014 58.8942 181.208 54.5441 188.189 52.7527C191.609 51.8749 195.216 51.611 198.779 52.4786C198.298 52.416 197.812 52.3802 197.322 52.3744C194.743 52.3442 192.078 53.1492 189.534 55.2303C186.999 57.3029 184.604 60.6255 182.518 65.6025C179.294 71.8805 177.007 76.1831 174.165 79.3636C171.343 82.5235 167.952 84.5927 162.481 86.3324C161.362 86.6786 160.218 86.8272 159.012 86.9711C158.943 86.9792 158.874 86.9875 158.805 86.9958C157.67 87.1303 156.485 87.2713 155.273 87.5865C152.668 88.2638 149.97 89.7385 147.171 93.5892C144.498 97.2669 139.784 100.442 134.087 101.107C128.403 101.77 121.7 99.9387 115.039 93.5317L115.032 93.5242L115.023 93.5169C113.118 91.8862 112.288 90.7241 111.808 89.9098C111.72 89.7615 111.643 89.6235 111.572 89.4934Z" fill="#3888FF"/>
<mask id="mask0_19115_100747" style="mask-type:alpha" maskUnits="userSpaceOnUse" x="110" y="50" width="101" height="53">
<path fill-rule="evenodd" clip-rule="evenodd" d="M209.4 58.6907L210.008 58.1045C203.336 50.2289 195.337 49.5287 188.167 51.4652C181.027 53.3935 174.696 57.9357 171.26 60.5604C169.489 61.9125 168.056 63.7109 166.696 65.5851C166.345 66.0681 166 66.555 165.655 67.0418C164.65 68.46 163.647 69.8757 162.516 71.182C161.005 72.926 159.293 74.4415 157.112 75.4347C154.933 76.4271 152.255 76.9122 148.798 76.5464C145.227 76.1687 142.494 76.6265 140.256 77.589C138.021 78.5503 136.313 80.002 134.782 81.5568C134.175 82.1737 133.59 82.8123 133.013 83.4423C132.865 83.6035 132.718 83.7643 132.571 83.9238C131.847 84.7109 131.125 85.4764 130.356 86.1853C128.824 87.5989 127.114 88.7795 124.872 89.4127C117.535 91.4866 111.974 89.7678 110.519 88.941L110.06 89.6547C110.114 89.6938 110.179 89.7807 110.33 90.0417C110.349 90.0729 110.367 90.1056 110.387 90.14C110.521 90.3712 110.696 90.676 110.952 91.0501C111.54 91.9119 112.541 93.1297 114.463 94.7895C121.157 101.296 128.025 103.165 133.952 102.399C139.868 101.635 144.809 98.2507 147.65 94.326C150.365 90.5774 152.901 89.1829 155.309 88.524C156.464 88.2081 157.596 88.0596 158.737 87.9097C158.802 87.9011 158.867 87.8927 158.931 87.8841C160.129 87.7263 161.34 87.5566 162.539 87.1689L162.541 87.168C168.109 85.3214 171.655 83.129 174.634 79.7671C177.592 76.428 179.971 71.9537 183.244 65.614L183.251 65.5983L183.258 65.5826C185.358 60.6252 187.709 57.3852 190.114 55.3868C192.513 53.3945 194.984 52.6195 197.368 52.6209C202.165 52.6236 206.659 55.7763 209.4 58.6907ZM198.87 51.8759C198.392 51.8183 197.908 51.7876 197.42 51.7874C194.853 51.7858 192.191 52.6265 189.634 54.7507C187.087 56.8663 184.664 60.2392 182.529 65.2747C179.247 71.6329 176.92 75.9915 174.055 79.2262C171.207 82.4397 167.809 84.5618 162.342 86.3752C161.224 86.7364 160.083 86.8989 158.881 87.0573C158.812 87.0663 158.743 87.0755 158.674 87.0846C157.543 87.2327 156.361 87.388 155.151 87.7191C152.55 88.4304 149.847 89.9456 147.016 93.8549C144.312 97.5884 139.583 100.839 133.903 101.572C128.237 102.304 121.584 100.535 115.028 94.1578L115.02 94.1502L115.012 94.143C113.125 92.5144 112.168 91.3418 111.621 90.541C111.552 90.4394 111.489 90.3436 111.431 90.253C113.951 91.1216 118.911 91.9473 125.038 90.216C127.445 89.5356 129.272 88.2663 130.872 86.7913C131.669 86.0559 132.411 85.2672 133.139 84.4775C133.289 84.3141 133.438 84.151 133.587 83.9881C134.163 83.3596 134.733 82.7365 135.329 82.1325C136.821 80.6162 138.435 79.2542 140.524 78.3556C142.611 77.4581 145.203 77.0095 148.664 77.3756C152.238 77.7537 155.063 77.257 157.397 76.1941C159.728 75.1322 161.539 73.5194 163.101 71.7149C164.264 70.372 165.304 68.9041 166.316 67.4764C166.656 66.9965 166.993 66.5214 167.33 66.0568C168.682 64.194 170.051 62.4874 171.711 61.2193C175.136 58.6034 181.352 54.1532 188.323 52.2708C191.739 51.3484 195.333 51.0422 198.87 51.8759Z" fill="#85FA4D"/>
</mask>
<g mask="url(#mask0_19115_100747)">
<path d="M178.958 92.5613L211.003 59.8915L186.192 33.1485L148.125 68.8511L178.958 92.5613Z" fill="#3888FF"/>
<path d="M156.469 100.648L168.615 91.6825L139.451 65.695L131.471 73.6476L156.469 100.648Z" fill="#3888FF"/>
<path d="M119.853 111.062L131.999 102.096L102.835 76.1078L94.855 84.0606L119.853 111.062Z" fill="#3888FF"/>
</g>
<path d="M1.97201 34.1035C4.23324 40.6266 8.95317 54.1671 9.74439 56.1448C40.2044 28.5673 59.6508 29.3919 65.5666 33.2514C61.1888 30.036 51.7209 23.113 48.8692 21.1425C36.0623 11.0745 12.2683 25.5882 1.97201 34.1035Z" fill="#92FC8C"/>
<path fill-rule="evenodd" clip-rule="evenodd" d="M65.3332 33.5982L65.8067 32.907C61.437 29.6978 51.9814 22.784 49.1133 20.8012C42.5397 15.6419 33.211 16.8226 24.3502 20.2661C15.462 23.7203 6.90136 29.504 1.72956 33.7811L1.4974 33.973L1.59345 34.2509C3.85196 40.7648 8.57637 54.3168 9.37123 56.3053L9.58079 56.828L10.0092 56.44C25.2033 42.6847 37.6233 36.0378 46.9534 33.302C56.2976 30.5625 62.5055 31.7535 65.3332 33.5982ZM62.4489 31.4841C58.8831 30.545 53.6049 30.5003 46.7605 32.5069C37.3671 35.2608 24.986 41.8865 9.92125 55.4377C8.75034 52.3116 4.60177 40.4139 2.45533 34.2246C7.60001 30.0085 15.9597 24.4001 24.6097 21.0382C33.4155 17.6163 42.3804 16.5742 48.6112 21.4723L48.6206 21.4796L48.6301 21.4863C50.9511 23.0899 57.6733 27.9877 62.4489 31.4841Z" fill="#3888FF"/>
<path d="M75.0632 39.834C77.9852 43.1549 110.569 87.0314 112.217 90.9956C108.498 89.2536 104.424 85.6215 101 81.7125C99.7814 80.322 65.4005 36.5245 62.4034 32.4637C65.5481 33.2839 72.142 36.5132 75.0632 39.834Z" fill="#92FC8C"/>
<path fill-rule="evenodd" clip-rule="evenodd" d="M113.015 91.835L112.594 90.8215C112.37 90.2823 111.655 89.127 110.608 87.5532C109.551 85.9629 108.129 83.9072 106.462 81.5443C103.128 76.818 98.8068 70.8548 94.447 64.9131C85.7362 53.0408 76.8451 41.22 75.3696 39.5428C73.8649 37.8323 71.4403 36.1691 69.0193 34.8363C66.5962 33.5022 64.1307 32.4744 62.5173 32.0535L61.3626 31.7523L62.0732 32.7158C65.073 36.7801 99.4644 80.5947 100.693 81.9976C104.13 85.922 108.247 89.6013 112.037 91.3769L113.015 91.835ZM111.186 89.9895C107.874 88.1179 104.345 84.8954 101.308 81.4284C100.169 80.1277 69.4874 41.0486 63.5215 33.2448C64.9656 33.7541 66.7922 34.5707 68.6117 35.5724C71.0048 36.89 73.3382 38.5023 74.7557 40.1133C76.2018 41.7573 85.0657 53.539 93.7904 65.43C98.1483 71.3698 102.466 77.3285 105.796 82.0491C107.461 84.4098 108.878 86.4588 109.93 88.0403C110.446 88.8156 110.867 89.4697 111.186 89.9895Z" fill="#3888FF"/>
<path d="M198.969 94.3126L203.25 93.205L202.344 88.8763L198.062 89.9837L198.969 94.3126Z" fill="#3888FF"/>
<path d="M274.056 67.7592L276.443 63.9144L272.775 61.6365L270.388 65.4813L274.056 67.7592Z" fill="#FFE34F"/>
</svg>
