<svg width="50" height="50" viewBox="0 0 50 50" fill="none" xmlns="http://www.w3.org/2000/svg">
<path d="M6.91095 41.4214C6.8829 41.3989 6.85585 41.3763 6.82879 41.3528L6.8308 41.3508C6.82579 41.3469 6.82078 41.342 6.81577 41.338C-1.4336 34.3649 -0.775515 20.653 7.95399 10.7543C16.683 0.855521 30.4418 -1.78172 38.6908 5.19143M6.91095 41.4214L38.6908 5.19143M6.91095 41.4214C6.91095 41.4224 6.91095 41.4224 6.91195 41.4224L11.2183 45.0629C11.2183 45.0629 11.2193 45.063 11.2193 45.0639C11.4548 45.265 11.6923 45.4523 11.9297 45.6318L11.9307 45.6308L11.9317 45.6318C17.4555 49.7774 25.2757 49.9716 32.4076 46.6694C35.1239 45.4121 37.743 43.6477 40.1116 41.392C40.308 41.2047 40.5044 41.0134 40.6998 40.8153H40.7008L40.3401 40.474L6.91095 41.4214ZM38.6908 5.19143L38.7189 5.21496M38.7189 5.21496L38.7199 5.21595L43.0644 8.88886L38.7189 5.21496Z" stroke="black" stroke-width="1.00195"/>
<path fill-rule="evenodd" clip-rule="evenodd" d="M14.3463 46.3708L9.55793 43.0392L9.55993 43.0412C9.3365 42.9029 9.11606 42.7607 8.89964 42.6116L8.81348 42.5508C8.84153 42.5714 8.87059 42.592 8.89964 42.6116L13.5988 45.8814C13.8453 46.055 14.0948 46.2159 14.3463 46.3708ZM37.4863 35.7002C45.8977 25.5808 46.1742 11.8444 38.1055 5.01544L38.1025 5.01346C37.7378 4.7055 37.3651 4.41619 36.9803 4.14746L41.7236 7.44867C42.1244 7.72623 42.5111 8.02634 42.8908 8.34607C50.9606 15.1751 50.684 28.9115 42.2716 39.0299C42.0983 39.2417 41.922 39.4477 41.7426 39.6517C39.6014 42.0928 37.1667 44.068 34.5927 45.5489C27.8255 49.4455 20.1195 49.9123 14.3463 46.3708L9.55793 43.0392C15.3282 46.5787 23.0352 46.1149 29.8064 42.2193C32.3784 40.7393 34.8151 38.7621 36.9563 36.321C37.1356 36.118 37.312 35.9121 37.4863 35.7002Z" fill="#FFB506"/>
<mask id="mask0_19063_56371" style="mask-type:alpha" maskUnits="userSpaceOnUse" x="8" y="4" width="41" height="45">
<path fill-rule="evenodd" clip-rule="evenodd" d="M14.3453 46.3708L9.55695 43.0392L9.55896 43.0402C9.33552 42.9019 9.11509 42.7597 8.89867 42.6106L8.8125 42.5508C8.84055 42.5714 8.86961 42.591 8.89867 42.6106L13.5978 45.8805C13.8443 46.054 14.0938 46.2159 14.3453 46.3708ZM37.4853 35.6992C45.8967 25.5808 46.1733 11.8444 38.1045 5.01544L38.1015 5.01346C37.7368 4.7055 37.3641 4.41619 36.9794 4.14746L41.7226 7.44768C42.1234 7.72524 42.5101 8.02536 42.8899 8.34508C50.9596 15.1741 50.683 28.9105 42.2717 39.0299C42.0973 39.2417 41.921 39.4477 41.7416 39.6507C39.6005 42.0918 37.1647 44.067 34.5917 45.5489C27.8245 49.4445 20.1185 49.9113 14.3453 46.3708L9.55796 43.0382C15.3282 46.5778 23.0342 46.1148 29.8054 42.2183C32.3774 40.7393 34.8141 38.7621 36.9553 36.321C37.1347 36.1171 37.311 35.9111 37.4853 35.6992Z" fill="#85FA4D"/>
</mask>
<g mask="url(#mask0_19063_56371)">
<path d="M13.1729 7.16239L48.696 41.4564L70.0416 20.48L34.5194 -13.8149L13.1729 7.16239Z" fill="#040809"/>
<path d="M15.0181 6.40681L50.5412 40.7008L51.6033 39.6563L16.0811 5.3623L15.0181 6.40681Z" fill="#FFB506"/>
</g>
<path d="M37.089 3.94563C28.2628 -2.19585 14.7826 1.59474 6.96236 12.2614C-0.85767 22.9281 -0.166023 36.5812 8.65967 42.7226C17.4849 48.8641 30.9651 45.0745 38.7853 34.4078C46.6056 23.7402 45.9142 10.0871 37.089 3.94563Z" fill="#FFE34F" stroke="#040809" stroke-width="1.00195"/>
<path d="M37.0895 3.94757L37.1206 3.96915L41.8588 7.26644C42.2656 7.54792 42.6594 7.85294 43.0431 8.17659C51.2401 15.1144 50.9135 28.998 42.454 39.1752C42.2776 39.389 42.0993 39.597 41.9199 39.8019C39.7617 42.2617 37.308 44.2536 34.7109 45.7473C27.8886 49.6752 20.0864 50.1636 14.222 46.5662M37.0895 3.94757C28.2643 -2.1939 14.7841 1.59671 6.96386 12.2634C-0.856171 22.93 -0.164624 36.5831 8.66117 42.7246C8.66618 42.7285 8.67219 42.7324 8.6782 42.7373L8.6772 42.7393C8.70625 42.7589 8.73531 42.7795 8.76436 42.8001L13.4635 46.0689C13.714 46.2455 13.9675 46.4093 14.222 46.5662M37.0895 3.94757L36.9543 4.13293M14.222 46.5662V46.5652" stroke="black" stroke-width="1.00195"/>
<path d="M32.948 21.9431C33.0968 22.7512 32.6875 23.6993 31.8073 24.1721C31.3675 24.4159 31.403 24.4078 30.9997 24.6222C30.2928 24.9981 30.2519 24.504 29.8464 23.673C28.8471 21.6299 25.8952 19.8722 25.2854 19.8182C23.68 19.6757 25.6131 19.2874 25.0542 16.2612C24.9099 15.4843 24.5683 14.5981 24.1589 14.1029C23.8384 13.7148 23.5649 13.3434 24.4312 12.8938C26.1541 11.9976 27.8108 12.6717 28.1552 14.5307C28.3705 15.6974 28.0151 17.0287 27.2981 18.0963C27.4674 18.0466 27.6398 17.9979 27.832 17.9494C30.2438 17.4069 32.486 19.4447 32.948 21.9431ZM28.7146 26.127C28.8508 26.9034 28.6898 27.841 27.4975 28.5054C24.8114 30.0011 17.2821 34.2163 15.9792 34.9309C14.5213 35.732 14.3295 34.969 14.1927 34.2286C13.5329 30.6625 15.1552 26.2315 17.9567 23.6546C16.5063 23.6151 15.5877 22.5515 15.2817 20.8976C14.8355 18.4832 16.2824 15.509 18.5087 14.2667C20.7348 13.0256 22.9083 13.9792 23.3552 16.3931C23.661 18.0482 23.2073 19.8772 22.0414 21.3763C25.1853 20.6361 28.0929 22.5744 28.7146 26.127Z" fill="#040809"/>
</svg>
