<svg width="112" height="80" viewBox="0 0 112 80" fill="none" xmlns="http://www.w3.org/2000/svg">
<path fill-rule="evenodd" clip-rule="evenodd" d="M20.4537 54.1501C21.1791 51.5961 22.3256 48.9208 23.9167 46.1649C34.226 28.3087 59.2981 13.8333 79.9167 13.8333C85.2496 13.8333 89.7622 14.8017 93.3438 16.5464L91.9863 13.1272L96.9447 13.1272L101.402 24.3545C104.153 30.1043 103.436 37.7601 98.5834 46.165C88.2741 64.0212 63.202 78.4966 42.5834 78.4966C31.3452 78.4966 23.7496 74.1962 20.8337 67.392L20.7916 67.392L14.6386 52.0079L19.597 52.0079L20.4537 54.1501Z" fill="#1E4FBC"/>
<path fill-rule="evenodd" clip-rule="evenodd" d="M101.937 24.1209C104.789 30.101 103.994 37.9599 99.0886 46.4566C93.8707 55.4943 84.9402 63.6435 74.7411 69.532C64.5419 75.4205 53.0192 79.0799 42.5834 79.0799C31.3075 79.0799 23.4723 74.7925 20.3757 67.8011C20.3224 67.747 20.2793 67.682 20.25 67.6087L14.097 52.2245C14.0252 52.0448 14.0471 51.8412 14.1556 51.6809C14.2641 51.5206 14.4451 51.4246 14.6387 51.4246L19.597 51.4246C19.8355 51.4246 20.05 51.5698 20.1386 51.7913L20.3879 52.4145C21.1171 50.2945 22.1219 48.107 23.4115 45.8733C28.6295 36.8356 37.5599 28.6864 47.7591 22.7979C57.9583 16.9094 69.4809 13.25 79.9167 13.25C84.6864 13.25 88.8344 14.0147 92.2718 15.4273L91.4442 13.3425C91.3728 13.1628 91.3951 12.9595 91.5037 12.7996C91.6123 12.6397 91.793 12.5439 91.9863 12.5439L96.9446 12.5439C97.1837 12.5439 97.3986 12.6898 97.4868 12.912L101.937 24.1209ZM98.0782 45.8733C102.873 37.5689 103.515 30.1234 100.876 24.6062C100.87 24.5943 100.865 24.5821 100.86 24.5697L96.5486 13.7106L92.8455 13.7106L93.8859 16.3312C93.9748 16.555 93.917 16.8104 93.7404 16.9741C93.5638 17.1379 93.3048 17.1763 93.0883 17.0708C89.6028 15.3729 85.1814 14.4167 79.9167 14.4167C69.7339 14.4167 58.4112 17.995 48.3424 23.8082C38.2736 29.6215 29.5133 37.638 24.4219 46.4566C22.8516 49.1764 21.7255 51.8075 21.0149 54.3095C20.9467 54.5496 20.7333 54.7198 20.484 54.7327C20.2347 54.7456 20.0049 54.5985 19.9122 54.3668L19.202 52.5913L15.5002 52.5913L21.261 66.9949C21.3059 67.0432 21.343 67.0995 21.3699 67.1623C24.1602 73.6733 31.479 77.9132 42.5834 77.9132C52.7662 77.9132 64.0889 74.3349 74.1577 68.5217C84.2265 62.7084 92.9868 54.6919 98.0782 45.8733Z" fill="#1A1A1A"/>
<path d="M37.3333 65.6632C16.7147 65.6632 8.35735 51.1879 18.6667 33.3316C28.976 15.4754 54.048 0.999996 74.6667 0.999998C95.2853 0.999999 103.643 15.4754 93.3333 33.3316C83.024 51.1879 57.952 65.6632 37.3333 65.6632Z" fill="white"/>
<path fill-rule="evenodd" clip-rule="evenodd" d="M92.75 33.3317C102.898 15.7544 94.6715 1.50522 74.375 1.50522C54.0785 1.50522 29.3982 15.7544 19.25 33.3316C9.10176 50.9089 17.3285 65.1581 37.625 65.1581C57.9215 65.1581 82.6018 50.9089 92.75 33.3317ZM74.9583 0.494855C95.8991 0.494857 104.387 15.1964 93.9167 33.3317C83.4463 51.4669 57.9825 66.1684 37.0417 66.1684C16.1009 66.1684 7.61293 51.4669 18.0833 33.3316C28.5537 15.1964 54.0175 0.494854 74.9583 0.494855Z" fill="#1A1A1A"/>
<path d="M66.3478 34.4878C65.2914 36.3176 66.1478 37.801 68.2606 37.801C70.3735 37.801 72.9427 36.3176 73.9992 34.4878C75.0556 32.658 74.1992 31.1747 72.0863 31.1747C69.9734 31.1747 67.4042 32.658 66.3478 34.4878Z" fill="#1E4FBC"/>
<path d="M46.6918 49.454C42.3932 49.454 40.6508 46.4362 42.8001 42.7135C44.9494 38.9908 50.1765 35.973 54.475 35.973C58.7736 35.973 60.516 38.9908 58.3667 42.7135C56.2174 46.4362 50.9903 49.454 46.6918 49.454Z" fill="#1E4FBC"/>
<path d="M38.5787 37.8009C36.4658 37.8009 35.6094 36.3176 36.6658 34.4878C37.7223 32.658 40.2915 31.1747 42.4044 31.1747C44.5172 31.1747 45.3736 32.658 44.3172 34.4878C43.2608 36.3176 40.6915 37.8009 38.5787 37.8009Z" fill="#1E4FBC"/>
<path d="M75.879 17.5223C73.4714 16.5512 69.316 17.9222 66.7105 20.4927C64.9956 22.2064 64.336 24.0343 64.8307 25.3482C65.1275 26.5477 64.5668 28.0901 63.0498 29.5753C62.0933 30.5464 60.939 31.289 59.7188 31.8031L59.5539 31.8602C59.0262 32.0887 58.4326 32.4314 58.0368 32.8884C56.9814 33.9166 56.9485 35.1162 57.9379 35.4589C58.8943 35.8588 60.6092 35.2876 61.5986 34.2594C62.0604 33.8024 62.3242 33.3454 62.3902 32.8884C62.588 31.9744 63.1817 30.9462 64.1381 29.9751C65.5562 28.5471 67.4361 27.576 69.184 27.1761L69.3489 27.119C69.4149 27.119 69.4809 27.119 69.5138 27.0619L69.6458 27.0619C71.7235 26.662 73.9332 25.5767 75.5492 23.9201C78.2206 21.3496 78.3855 18.4363 75.879 17.5223Z" fill="#1E4FBC"/>
<path d="M60.1146 20.4927C60.4774 17.9222 57.9049 16.5512 54.3761 17.5223C50.7813 18.4934 47.6152 21.3496 47.3184 23.9201C47.0215 25.5767 47.978 26.662 49.594 27.0619L49.7259 27.0619C49.6929 27.119 49.7589 27.119 49.8248 27.119L49.9238 27.1761C51.21 27.576 51.9685 28.5471 51.7377 29.9751C51.5728 30.9462 50.9791 31.9744 50.1217 32.8884C49.6599 33.3454 49.3961 33.8024 49.3301 34.2593C49.1323 35.2876 50.1876 35.8588 51.6058 35.4589C52.9909 35.1162 54.3431 33.9166 54.475 32.8884C54.6069 32.4314 54.409 32.0887 54.1452 31.8602L54.0463 31.8031C53.4197 31.289 53.1228 30.5464 53.2877 29.5753C53.4856 28.0901 54.7059 26.5477 56.3878 25.3482C58.3996 24.0343 59.8507 22.2064 60.1146 20.4927Z" fill="#1E4FBC"/>
<path d="M66.3478 34.4878C65.2914 36.3176 66.1478 37.801 68.2606 37.801C70.3735 37.801 72.9427 36.3176 73.9992 34.4878C75.0556 32.658 74.1992 31.1747 72.0863 31.1747C69.9734 31.1747 67.4042 32.658 66.3478 34.4878Z" stroke="#1A1A1A"/>
<path d="M46.6918 49.454C42.3932 49.454 40.6508 46.4362 42.8001 42.7135C44.9494 38.9908 50.1765 35.973 54.475 35.973C58.7736 35.973 60.516 38.9908 58.3667 42.7135C56.2174 46.4362 50.9903 49.454 46.6918 49.454Z" stroke="#1A1A1A"/>
<path d="M38.5787 37.8009C36.4658 37.8009 35.6094 36.3176 36.6658 34.4878C37.7223 32.658 40.2915 31.1747 42.4044 31.1747C44.5172 31.1747 45.3736 32.658 44.3172 34.4878C43.2608 36.3176 40.6915 37.8009 38.5787 37.8009Z" stroke="#1A1A1A"/>
<path d="M75.879 17.5223C73.4714 16.5512 69.316 17.9222 66.7105 20.4927C64.9956 22.2064 64.336 24.0343 64.8307 25.3482C65.1275 26.5477 64.5668 28.0901 63.0498 29.5753C62.0933 30.5464 60.939 31.289 59.7188 31.8031L59.5539 31.8602C59.0262 32.0887 58.4326 32.4314 58.0368 32.8884C56.9814 33.9166 56.9485 35.1162 57.9379 35.4589C58.8943 35.8588 60.6092 35.2876 61.5986 34.2594C62.0604 33.8024 62.3242 33.3454 62.3902 32.8884C62.588 31.9744 63.1817 30.9462 64.1381 29.9751C65.5562 28.5471 67.4361 27.576 69.184 27.1761L69.3489 27.119C69.4149 27.119 69.4809 27.119 69.5138 27.0619L69.6458 27.0619C71.7235 26.662 73.9332 25.5767 75.5492 23.9201C78.2206 21.3496 78.3855 18.4363 75.879 17.5223Z" stroke="#1A1A1A"/>
<path d="M60.1146 20.4927C60.4774 17.9222 57.9049 16.5512 54.3761 17.5223C50.7813 18.4934 47.6152 21.3496 47.3184 23.9201C47.0215 25.5767 47.978 26.662 49.594 27.0619L49.7259 27.0619C49.6929 27.119 49.7589 27.119 49.8248 27.119L49.9238 27.1761C51.21 27.576 51.9685 28.5471 51.7377 29.9751C51.5728 30.9462 50.9791 31.9744 50.1217 32.8884C49.6599 33.3454 49.3961 33.8024 49.3301 34.2593C49.1323 35.2876 50.1876 35.8588 51.6058 35.4589C52.9909 35.1162 54.3431 33.9166 54.475 32.8884C54.6069 32.4314 54.409 32.0887 54.1452 31.8602L54.0463 31.8031C53.4197 31.289 53.1228 30.5464 53.2877 29.5753C53.4856 28.0901 54.7059 26.5477 56.3878 25.3482C58.3996 24.0343 59.8507 22.2064 60.1146 20.4927Z" stroke="#1A1A1A"/>
</svg>
