<svg width="56" height="41" viewBox="0 0 56 41" fill="none" xmlns="http://www.w3.org/2000/svg">
<path fill-rule="evenodd" clip-rule="evenodd" d="M10.2268 27.5751C10.5895 26.2981 11.1627 24.9604 11.9583 23.5825C17.1129 14.6543 29.649 7.41666 39.9583 7.41666C42.6247 7.41666 44.881 7.90083 46.6718 8.77319L45.9931 7.06361L48.4723 7.06361L50.7009 12.6772C52.0763 15.5521 51.7179 19.38 49.2916 23.5825C44.137 32.5106 31.6009 39.7483 21.2916 39.7483C15.6725 39.7483 11.8747 37.5981 10.4168 34.196L10.3957 34.196L7.31925 26.504L9.79842 26.504L10.2268 27.5751Z" fill="#1E4FBC"/>
<path fill-rule="evenodd" clip-rule="evenodd" d="M50.9685 12.5604C52.3944 15.5505 51.9972 19.4799 49.5443 23.7283C46.9354 28.2471 42.4702 32.3218 37.3706 35.266C32.271 38.2103 26.5097 40.0399 21.2918 40.0399C15.6538 40.0399 11.7362 37.8963 10.1879 34.4005C10.1613 34.3735 10.1397 34.341 10.1251 34.3043L7.04858 26.6123C7.01264 26.5224 7.02362 26.4206 7.07787 26.3404C7.13213 26.2603 7.22261 26.2123 7.31939 26.2123L9.79855 26.2123C9.91782 26.2123 10.0251 26.2849 10.0694 26.3956L10.194 26.7072C10.5586 25.6472 11.061 24.5535 11.7058 23.4366C14.3148 18.9178 18.78 14.8432 23.8796 11.8989C28.9792 8.95467 34.7405 7.12499 39.9584 7.12499C42.3433 7.12499 44.4173 7.50731 46.136 8.21362L45.7221 7.17123C45.6865 7.0814 45.6976 6.97974 45.7519 6.89978C45.8062 6.81982 45.8966 6.77194 45.9932 6.77194L48.4724 6.77194C48.5919 6.77194 48.6994 6.84488 48.7435 6.95599L50.9685 12.5604ZM49.0392 23.4366C51.4364 19.2844 51.7577 15.5617 50.4379 12.8031C50.4351 12.7971 50.4324 12.791 50.43 12.7849L48.2744 7.35528L46.4228 7.35528L46.943 8.66557C46.9875 8.77747 46.9586 8.90518 46.8703 8.98705C46.782 9.06892 46.6525 9.08813 46.5442 9.0354C44.8015 8.18644 42.5908 7.70832 39.9584 7.70832C34.867 7.70832 29.2057 9.49748 24.1713 12.4041C19.1368 15.3107 14.7567 19.319 12.211 23.7283C11.4259 25.0882 10.8628 26.4038 10.5075 27.6547C10.4734 27.7748 10.3667 27.8599 10.2421 27.8663C10.1174 27.8728 10.0025 27.7993 9.95614 27.6834L9.60108 26.7956L7.75017 26.7956L10.6306 33.9974C10.653 34.0216 10.6716 34.0497 10.685 34.0811C12.0801 37.3366 15.7396 39.4566 21.2918 39.4566C26.3832 39.4566 32.0445 37.6674 37.0789 34.7608C42.1133 31.8542 46.4935 27.8459 49.0392 23.4366Z" fill="#1A1A1A"/>
<path d="M18.6667 33.3316C8.35735 33.3316 4.17868 26.0939 9.33333 17.1658C14.488 8.23768 27.024 0.999998 37.3333 0.999999C47.6426 0.999999 51.8213 8.23768 46.6667 17.1658C41.512 26.0939 28.976 33.3316 18.6667 33.3316Z" fill="white"/>
<path fill-rule="evenodd" clip-rule="evenodd" d="M46.375 17.1658C51.4491 8.37719 47.3357 1.2526 37.1875 1.2526C27.0393 1.2526 14.6991 8.37719 9.625 17.1658C4.55088 25.9544 8.66426 33.079 18.8125 33.079C28.9607 33.079 41.3009 25.9544 46.375 17.1658ZM37.4792 0.74742C47.9496 0.747421 52.1935 8.09819 46.9583 17.1658C41.7231 26.2334 28.9912 33.5842 18.5208 33.5842C8.05043 33.5842 3.80647 26.2334 9.04166 17.1658C14.2769 8.09819 27.0088 0.747419 37.4792 0.74742Z" fill="#1A1A1A"/>
<path d="M33.1739 17.7439C32.6457 18.6588 33.0739 19.4005 34.1303 19.4005C35.1867 19.4005 36.4713 18.6588 36.9995 17.7439C37.5278 16.829 37.0996 16.0873 36.0431 16.0873C34.9867 16.0873 33.7021 16.829 33.1739 17.7439Z" fill="#1E4FBC"/>
<path d="M23.3459 25.227C21.1966 25.227 20.3254 23.7181 21.4 21.8567C22.4747 19.9954 25.0882 18.4865 27.2375 18.4865C29.3868 18.4865 30.258 19.9954 29.1833 21.8567C28.1087 23.7181 25.4951 25.227 23.3459 25.227Z" fill="#1E4FBC"/>
<path d="M19.2893 19.4005C18.2329 19.4005 17.8047 18.6588 18.3329 17.7439C18.8611 16.829 20.1457 16.0873 21.2021 16.0873C22.2586 16.0873 22.6868 16.829 22.1586 17.7439C21.6303 18.6588 20.3457 19.4005 19.2893 19.4005Z" fill="#1E4FBC"/>
<path d="M37.9395 9.26116C36.7357 8.77561 34.6579 9.46109 33.3552 10.7464C32.4978 11.6032 32.168 12.5172 32.4153 13.1741C32.5637 13.7739 32.2834 14.545 31.5249 15.2876C31.0466 15.7732 30.4695 16.1445 29.8594 16.4015L29.7769 16.4301C29.5131 16.5443 29.2163 16.7157 29.0184 16.9442C28.4907 17.4583 28.4742 18.0581 28.9689 18.2295C29.4471 18.4294 30.3046 18.1438 30.7993 17.6297C31.0302 17.4012 31.1621 17.1727 31.1951 16.9442C31.294 16.4872 31.5908 15.9731 32.069 15.4876C32.7781 14.7735 33.718 14.288 34.592 14.088L34.6744 14.0595C34.7074 14.0595 34.7404 14.0595 34.7569 14.0309L34.8228 14.0309C35.8617 13.831 36.9665 13.2883 37.7746 12.46C39.1102 11.1748 39.1927 9.71814 37.9395 9.26116Z" fill="#1E4FBC"/>
<path d="M30.0573 10.7464C30.2387 9.46109 28.9524 8.77561 27.188 9.26116C25.3906 9.7467 23.8076 11.1748 23.6591 12.46C23.5107 13.2883 23.9889 13.831 24.797 14.0309L24.8629 14.0309C24.8464 14.0595 24.8794 14.0595 24.9124 14.0595L24.9619 14.088C25.605 14.288 25.9842 14.7735 25.8688 15.4876C25.7864 15.9731 25.4895 16.4872 25.0608 16.9442C24.8299 17.1727 24.698 17.4012 24.665 17.6297C24.5661 18.1438 25.0938 18.4294 25.8028 18.2295C26.4954 18.0581 27.1715 17.4583 27.2375 16.9442C27.3034 16.7157 27.2045 16.5443 27.0726 16.4301L27.0231 16.4015C26.7098 16.1445 26.5614 15.7732 26.6438 15.2876C26.7428 14.545 27.3529 13.7739 28.1939 13.1741C29.1998 12.5172 29.9253 11.6032 30.0573 10.7464Z" fill="#1E4FBC"/>
<path d="M33.1739 17.7439C32.6457 18.6588 33.0739 19.4005 34.1303 19.4005C35.1867 19.4005 36.4713 18.6588 36.9995 17.7439C37.5278 16.829 37.0996 16.0873 36.0431 16.0873C34.9867 16.0873 33.7021 16.829 33.1739 17.7439Z" stroke="#1A1A1A"/>
<path d="M23.3459 25.227C21.1966 25.227 20.3254 23.7181 21.4 21.8567C22.4747 19.9954 25.0882 18.4865 27.2375 18.4865C29.3868 18.4865 30.258 19.9954 29.1833 21.8567C28.1087 23.7181 25.4951 25.227 23.3459 25.227Z" stroke="#1A1A1A"/>
<path d="M19.2893 19.4005C18.2329 19.4005 17.8047 18.6588 18.3329 17.7439C18.8611 16.829 20.1457 16.0873 21.2021 16.0873C22.2586 16.0873 22.6868 16.829 22.1586 17.7439C21.6303 18.6588 20.3457 19.4005 19.2893 19.4005Z" stroke="#1A1A1A"/>
<path d="M37.9395 9.26116C36.7357 8.77561 34.6579 9.46109 33.3552 10.7464C32.4978 11.6032 32.168 12.5172 32.4153 13.1741C32.5637 13.7739 32.2834 14.545 31.5249 15.2876C31.0466 15.7732 30.4695 16.1445 29.8594 16.4015L29.7769 16.4301C29.5131 16.5443 29.2163 16.7157 29.0184 16.9442C28.4907 17.4583 28.4742 18.0581 28.9689 18.2295C29.4471 18.4294 30.3046 18.1438 30.7993 17.6297C31.0302 17.4012 31.1621 17.1727 31.1951 16.9442C31.294 16.4872 31.5908 15.9731 32.069 15.4876C32.7781 14.7735 33.718 14.288 34.592 14.088L34.6744 14.0595C34.7074 14.0595 34.7404 14.0595 34.7569 14.0309L34.8228 14.0309C35.8617 13.831 36.9665 13.2883 37.7746 12.46C39.1102 11.1748 39.1927 9.71814 37.9395 9.26116Z" stroke="#1A1A1A"/>
<path d="M30.0573 10.7464C30.2387 9.46109 28.9524 8.77561 27.188 9.26116C25.3906 9.7467 23.8076 11.1748 23.6591 12.46C23.5107 13.2883 23.9889 13.831 24.797 14.0309L24.8629 14.0309C24.8464 14.0595 24.8794 14.0595 24.9124 14.0595L24.9619 14.088C25.605 14.288 25.9842 14.7735 25.8688 15.4876C25.7864 15.9731 25.4895 16.4872 25.0608 16.9442C24.8299 17.1727 24.698 17.4012 24.665 17.6297C24.5661 18.1438 25.0938 18.4294 25.8028 18.2295C26.4954 18.0581 27.1715 17.4583 27.2375 16.9442C27.3034 16.7157 27.2045 16.5443 27.0726 16.4301L27.0231 16.4015C26.7098 16.1445 26.5614 15.7732 26.6438 15.2876C26.7428 14.545 27.3529 13.7739 28.1939 13.1741C29.1998 12.5172 29.9253 11.6032 30.0573 10.7464Z" stroke="#1A1A1A"/>
</svg>
