<svg width="118" height="128" viewBox="0 0 118 128" fill="none" xmlns="http://www.w3.org/2000/svg">
<path fill-rule="evenodd" clip-rule="evenodd" d="M18.5261 116.724C18.0658 115.899 17.681 114.937 17.3878 113.843C15.4883 106.753 18.1554 96.7994 23.3451 91.6097C24.6874 90.2674 26.0669 89.3753 27.4075 88.913L26.2053 88.3941L27.4533 87.1461L31.401 88.8501C33.5406 89.6049 35.2871 91.7123 36.1812 95.0491C38.0808 102.138 35.4136 112.092 30.224 117.282C27.3953 120.111 24.4012 120.94 21.9547 119.961L21.9441 119.972L16.5232 117.648L17.7712 116.4L18.5261 116.724Z" fill="white"/>
<path fill-rule="evenodd" clip-rule="evenodd" d="M31.4769 88.6566C33.6999 89.444 35.4779 91.622 36.3818 94.9954C37.3433 98.5835 37.1466 102.882 36.0616 106.932C34.9767 110.981 32.9975 114.802 30.3708 117.429C27.5327 120.267 24.4815 121.16 21.9423 120.18C21.9153 120.179 21.8881 120.174 21.8623 120.163L16.4414 117.839C16.3781 117.812 16.3324 117.755 16.3194 117.688C16.3063 117.62 16.3277 117.55 16.3764 117.502L17.6244 116.254C17.6845 116.194 17.775 116.176 17.853 116.21L18.0726 116.304C17.7226 115.587 17.4249 114.783 17.1873 113.896C16.2259 110.308 16.4225 106.009 17.5075 101.96C18.5925 97.9108 20.5716 94.0895 23.1983 91.4629C24.3988 90.2623 25.6353 89.4108 26.8561 88.9011L26.123 88.5847C26.0598 88.5574 26.0143 88.5007 26.0014 88.4331C25.9884 88.3655 26.0098 88.2959 26.0585 88.2473L27.3065 86.9993C27.3666 86.9391 27.4574 86.9217 27.5356 86.9554L31.4769 88.6566ZM35.9807 95.1029C35.0973 91.8059 33.385 89.7702 31.332 89.0459C31.3275 89.0443 31.3231 89.0426 31.3188 89.0407L27.5004 87.3926L26.5684 88.3246L27.4898 88.7224C27.5685 88.7563 27.6183 88.8352 27.615 88.9208C27.6118 89.0065 27.5563 89.0814 27.4752 89.1093C26.1706 89.5592 24.8171 90.4314 23.492 91.7565C20.929 94.3195 18.9797 98.07 17.9086 102.068C16.8375 106.065 16.6503 110.288 17.5884 113.789C17.8778 114.869 18.2566 115.814 18.7074 116.623C18.7507 116.7 18.7398 116.797 18.6803 116.863C18.6209 116.929 18.526 116.95 18.4443 116.915L17.8187 116.647L16.8869 117.578L21.9623 119.754C21.9857 119.755 22.0092 119.759 22.0318 119.769C24.3729 120.705 27.2822 119.93 30.0772 117.135C32.6402 114.572 34.5894 110.822 35.6605 106.824C36.7316 102.827 36.9188 98.604 35.9807 95.1029Z" fill="#1A1A1A"/>
<path d="M25.6723 115.373C20.4827 120.563 14.7358 119.023 12.8362 111.934C10.9367 104.845 13.6038 94.8906 18.7935 89.701C23.9831 84.5113 29.7301 86.0512 31.6296 93.1404C33.5292 100.23 30.862 110.184 25.6723 115.373Z" fill="#1E4FBC"/>
<path fill-rule="evenodd" clip-rule="evenodd" d="M31.4829 93.2873C29.613 86.3088 23.9558 84.793 18.8473 89.9016C13.7387 95.0101 11.1132 104.809 12.9831 111.787C14.853 118.765 20.5101 120.281 25.6187 115.173C30.7272 110.064 33.3527 100.266 31.4829 93.2873ZM18.7398 89.5004C24.0105 84.2297 29.8473 85.7936 31.7765 92.9936C33.7057 100.194 30.9969 110.303 25.7261 115.574C20.4554 120.845 14.6187 119.281 12.6894 112.081C10.7602 104.881 13.4691 94.7712 18.7398 89.5004Z" fill="#1A1A1A"/>
<path d="M74.3734 7.42669C74.5031 7.29695 74.7519 7.23027 74.9292 7.27776L105.094 15.3604C105.271 15.4079 105.31 15.5516 105.18 15.6813L83.0978 37.7636C82.9681 37.8933 82.7192 37.96 82.542 37.9125L52.3771 29.8299C52.1999 29.7824 52.1614 29.6387 52.2911 29.5089L74.3734 7.42669Z" fill="#EDEDED"/>
<path fill-rule="evenodd" clip-rule="evenodd" d="M74.0525 7.34069C74.312 7.0812 74.8097 6.94784 75.1641 7.04282L105.329 15.1255C105.684 15.2205 105.761 15.5078 105.501 15.7673L83.4188 37.8495C83.1593 38.109 82.6616 38.2424 82.3071 38.1474L52.1422 30.0647C51.7878 29.9698 51.7108 29.6824 51.9702 29.4229L74.0525 7.34069ZM74.6943 7.51266L52.6121 29.5949L82.777 37.6776L104.859 15.5953L74.6943 7.51266Z" fill="#1A1A1A"/>
<path d="M52.1421 30.0647C52.0946 29.8875 52.1998 29.7823 52.3771 29.8298L82.542 37.9125C82.7192 37.96 82.9014 38.1421 82.9489 38.3194L91.0315 68.4843C91.079 68.6615 90.9738 68.7667 90.7966 68.7192L60.6317 60.6366C60.4545 60.5891 60.2723 60.4069 60.2248 60.2297L52.1421 30.0647Z" fill="#1E4FBC"/>
<path fill-rule="evenodd" clip-rule="evenodd" d="M51.8213 29.9788C51.7263 29.6243 51.9366 29.414 52.2911 29.5089L82.456 37.5916C82.8105 37.6866 83.1748 38.0509 83.2698 38.4054L91.3525 68.5703C91.4474 68.9248 91.2371 69.1351 90.8826 69.0401L60.7177 60.9575C60.3632 60.8625 59.9989 60.4982 59.9039 60.1437L51.8213 29.9788ZM52.4631 30.1508L60.5457 60.3157L90.7107 68.3983L82.628 38.2334L52.4631 30.1508Z" fill="#1A1A1A"/>
<path d="M83.1094 38.2764C83.0619 38.0992 83.1286 37.8503 83.2584 37.7206L105.341 15.6383C105.47 15.5086 105.614 15.5471 105.662 15.7243L113.744 45.8892C113.792 46.0665 113.725 46.3153 113.595 46.4451L91.513 68.5273C91.3833 68.6571 91.2396 68.6186 91.1921 68.4413L83.1094 38.2764Z" fill="white"/>
<path fill-rule="evenodd" clip-rule="evenodd" d="M82.8745 38.5113C82.7795 38.1569 82.9129 37.6592 83.1723 37.3997L105.255 15.3174C105.514 15.0579 105.801 15.1349 105.896 15.4894L113.979 45.6543C114.074 46.0088 113.941 46.5065 113.681 46.766L91.599 68.8482C91.3395 69.1077 91.0521 69.0307 90.9572 68.6762L82.8745 38.5113ZM83.3443 38.0415L91.427 68.2064L113.509 46.1241L105.427 15.9592L83.3443 38.0415Z" fill="#1A1A1A"/>
<path fill-rule="evenodd" clip-rule="evenodd" d="M85.087 18.6569C85.0184 18.5996 84.9245 18.6159 84.8405 18.6999C84.7566 18.7838 84.6954 18.9225 84.6801 19.0638L82.6164 38.0415C82.6011 38.1828 82.6338 38.3051 82.7024 38.3624C82.771 38.4197 82.8649 38.4033 82.9489 38.3194L105.501 15.7673C105.585 15.6834 105.646 15.5447 105.661 15.4034C105.677 15.2622 105.644 15.1398 105.575 15.0825L96.363 7.38084C96.2945 7.32351 96.2005 7.3399 96.1166 7.42383C96.0327 7.50776 95.9715 7.64647 95.9561 7.78773L93.9669 26.0807L85.087 18.6569Z" fill="#1A1A1A"/>
<path fill-rule="evenodd" clip-rule="evenodd" d="M90.9776 43.2189C89.5505 44.6461 88.817 47.3834 89.3394 49.333C89.8618 51.2825 91.4422 51.706 92.8693 50.2788L94.7487 48.3995C96.1758 46.9723 96.9093 44.235 96.3869 42.2854C95.8646 40.3359 94.2841 39.9124 92.857 41.3396L90.9776 43.2189ZM90.4142 45.1241C90.4459 44.97 90.4834 44.8172 90.5268 44.6663C89.7847 45.8893 89.4664 47.5836 89.8092 48.8631C90.1521 50.1427 91.052 50.6187 91.9973 50.1543C91.9085 50.1356 91.8223 50.1066 91.7388 50.0676C91.1733 49.8032 90.7646 49.0937 90.514 48.1584C90.2634 47.2231 90.1995 46.1687 90.4142 45.1241ZM95.9171 42.7553C96.2599 44.0348 95.9416 45.7291 95.1995 46.9521C95.2429 46.8012 95.2804 46.6485 95.3121 46.4943C95.5268 45.4497 95.463 44.3954 95.2123 43.46C94.9617 42.5247 94.553 41.8152 93.9875 41.5508C93.9041 41.5118 93.8178 41.4828 93.729 41.4641C94.6744 40.9997 95.5742 41.4758 95.9171 42.7553Z" fill="#1A1A1A"/>
<path fill-rule="evenodd" clip-rule="evenodd" d="M100.146 38.5268C99.6232 36.5772 100.357 33.8399 101.784 32.4127L103.663 30.5334C105.09 29.1062 106.671 29.5297 107.193 31.4792C107.716 33.4288 106.982 36.1661 105.555 37.5933L103.676 39.4726C102.248 40.8998 100.668 40.4763 100.146 38.5268ZM101.333 33.8601C101.29 34.011 101.252 34.1638 101.22 34.3179C101.006 35.3625 101.07 36.4168 101.32 37.3522C101.571 38.2875 101.98 38.997 102.545 39.2614C102.628 39.3004 102.715 39.3294 102.804 39.3481C101.858 39.8125 100.958 39.3365 100.615 38.0569C100.273 36.7774 100.591 35.0831 101.333 33.8601ZM106.006 36.1459C106.748 34.9229 107.066 33.2286 106.723 31.9491C106.38 30.6696 105.481 30.1935 104.535 30.6579C104.624 30.6766 104.71 30.7056 104.794 30.7446C105.359 31.009 105.768 31.7185 106.019 32.6538C106.269 33.5892 106.333 34.6435 106.118 35.6881C106.087 35.8423 106.049 35.995 106.006 36.1459Z" fill="#1A1A1A"/>
<path d="M100.284 45.7125C100.189 45.3581 99.9015 45.2811 99.642 45.5406C99.3826 45.8 99.2492 46.2977 99.3442 46.6522L99.6881 47.9358C100.163 49.7081 99.4962 52.1966 98.1988 53.494C97.9393 53.7535 97.806 54.2512 97.9009 54.6057C97.9959 54.9601 98.2833 55.0371 98.5427 54.7776C99.7391 53.5813 100.552 51.6615 100.778 49.7814C101.703 50.5105 102.984 50.336 104.181 49.1396C104.44 48.8801 104.574 48.3824 104.479 48.028C104.384 47.6735 104.096 47.5965 103.837 47.856C102.539 49.1534 101.103 48.7684 100.628 46.9961L100.284 45.7125Z" fill="#1A1A1A"/>
</svg>
