<svg width="16" height="16" viewBox="0 0 16 16" fill="none" xmlns="http://www.w3.org/2000/svg">
<path d="M4.36365 6.01099C6.30195 3.84009 9.69824 3.84009 11.6365 6.01098L13.4122 7.99975L11.6365 9.98851C9.69824 12.1594 6.30195 12.1594 4.36365 9.98851L2.58797 7.99975L4.36365 6.01099ZM12.569 5.17846C10.1337 2.45093 5.86652 2.45093 3.43122 5.17847L1.20955 7.66674C1.04018 7.85644 1.04018 8.14305 1.20955 8.33275L3.43122 10.821C5.86653 13.5486 10.1337 13.5486 12.569 10.821L14.7906 8.33275C14.96 8.14305 14.96 7.85644 14.7906 7.66674L12.569 5.17846ZM6.87511 7.99975C6.87511 7.37843 7.37879 6.87476 8.00011 6.87476C8.62143 6.87476 9.12511 7.37843 9.12511 7.99975C9.12511 8.62107 8.62143 9.12475 8.00011 9.12475C7.37879 9.12475 6.87511 8.62107 6.87511 7.99975ZM8.00011 5.62476C6.68844 5.62476 5.62511 6.68808 5.62511 7.99975C5.62511 9.31143 6.68844 10.3748 8.00011 10.3748C9.31179 10.3748 10.3751 9.31143 10.3751 7.99975C10.3751 6.68808 9.31179 5.62476 8.00011 5.62476Z" fill="white"/>
</svg>
