<svg viewBox="0 0 33 32" fill="none" xmlns="http://www.w3.org/2000/svg">
<path d="M30.5 16C30.5 23.732 24.232 30 16.5 30C8.76801 30 2.5 23.732 2.5 16C2.5 8.26801 8.76801 2 16.5 2C24.232 2 30.5 8.26801 30.5 16ZM10.9493 11.6512C10.7931 11.8074 10.7931 12.0607 10.9493 12.2169L14.7325 16.0001L10.9494 19.7831C10.7932 19.9393 10.7932 20.1926 10.9494 20.3488L12.1515 21.5509C12.3077 21.7071 12.561 21.7071 12.7172 21.5509L16.5002 17.7678L20.2832 21.5507C20.4394 21.7069 20.6926 21.7069 20.8488 21.5507L22.0509 20.3487C22.2071 20.1924 22.2071 19.9392 22.0509 19.783L18.268 16.0001L22.051 12.2171C22.2072 12.0609 22.2072 11.8076 22.051 11.6514L20.8489 10.4493C20.6927 10.2931 20.4394 10.2931 20.2832 10.4493L16.5002 14.2323L12.7171 10.4492C12.5609 10.2929 12.3076 10.2929 12.1514 10.4492L10.9493 11.6512Z" fill="#F53F3F"/>
</svg>
