<svg width="20" height="20" viewBox="0 0 20 20" fill="none" xmlns="http://www.w3.org/2000/svg">
<path d="M18.75 10C18.75 14.8325 14.8325 18.75 10 18.75C5.16751 18.75 1.25 14.8325 1.25 10C1.25 5.16751 5.16751 1.25 10 1.25C14.8325 1.25 18.75 5.16751 18.75 10ZM10.8777 12.8125V9C10.8777 8.86193 10.7658 8.75 10.6277 8.75H8.78119C8.64312 8.75 8.53119 8.86193 8.53119 9V10.0625C8.53119 10.2006 8.64312 10.3125 8.78119 10.3125H9.31519V12.8125H8.78119C8.64312 12.8125 8.53119 12.9244 8.53119 13.0625V14.125C8.53119 14.2631 8.64312 14.375 8.78119 14.375H11.2187C11.3568 14.375 11.4687 14.2631 11.4687 14.125V13.0625C11.4687 12.9244 11.3568 12.8125 11.2187 12.8125H10.8777ZM10.0001 7.875C10.6214 7.875 11.1251 7.37132 11.1251 6.75C11.1251 6.12868 10.6214 5.625 10.0001 5.625C9.3788 5.625 8.87512 6.12868 8.87512 6.75C8.87512 7.37132 9.3788 7.875 10.0001 7.875Z" fill="#3888FF"/>
</svg>
