<svg width="32" height="32" viewBox="0 0 32 32" fill="#3888FF" xmlns="http://www.w3.org/2000/svg">
<path d="M29.5003 15.293C29.8909 15.6835 29.8909 16.3167 29.5003 16.7072L20.5908 25.6167C20.4346 25.7729 20.1813 25.7729 20.0251 25.6167L18.6109 24.2025C18.4547 24.0463 18.4547 23.793 18.6109 23.6368L24.8477 17.4001H2.60703C2.38612 17.4001 2.20703 17.221 2.20703 17.0001V15.0001C2.20703 14.7792 2.38612 14.6001 2.60703 14.6001H24.8464L18.6095 8.36317C18.4533 8.20696 18.4533 7.95369 18.6095 7.79748L20.0237 6.38327C20.1799 6.22706 20.4332 6.22706 20.5894 6.38327L29.5003 15.293Z" fill="inherit"/>
</svg>
