<svg width="14" height="14" viewBox="0 0 14 14" fill="none" xmlns="http://www.w3.org/2000/svg">
<path d="M6.24673 8.2173L5.40845 9.05557C4.80335 7.86475 4.99867 6.37172 5.99439 5.376L7.85054 3.51984C9.08924 2.28115 11.0976 2.28115 12.3363 3.51984C13.5749 4.75854 13.5749 6.76686 12.3363 8.00555L10.4801 9.86171C9.48439 10.8574 7.99139 11.0527 6.80059 10.4477L7.63887 9.60939C8.34744 9.82171 9.14699 9.64802 9.7067 9.08831L11.5629 7.23215C12.3744 6.42059 12.3744 5.1048 11.5629 4.29324C10.7513 3.48168 9.4355 3.48168 8.62394 4.29324L6.76779 6.14939C6.20806 6.70912 6.03437 7.50871 6.24673 8.2173Z" fill="#3888FF"/>
<path d="M4.29295 4.91194C4.85267 4.35222 5.65225 4.17853 6.36083 4.39088L7.19911 3.5526C6.00829 2.94751 4.51527 3.14283 3.51955 4.13855L1.6634 5.9947C0.424702 7.2334 0.424701 9.24172 1.6634 10.4804C2.90209 11.7191 4.91041 11.7191 6.1491 10.4804L8.00526 8.62426C9.00097 7.62854 9.19629 6.13553 8.59122 4.94472L7.75293 5.78301C7.96527 6.49158 7.79158 7.29114 7.23186 7.85086L5.37571 9.70701C4.56415 10.5186 3.24835 10.5186 2.43679 9.70701C1.62524 8.89545 1.62524 7.57966 2.43679 6.7681L4.29295 4.91194Z" fill="#3888FF"/>
</svg>
