<svg width="24" height="24" viewBox="0 0 24 24" fill="none" xmlns="http://www.w3.org/2000/svg">
<g clip-path="url(#clip0_21526_11564)">
<path fill-rule="evenodd" clip-rule="evenodd" d="M9.99773 8.41466L18.0068 6.05514V17.945L9.99773 15.594V8.41466ZM19.5 5.96272C19.5 4.99065 18.5921 4.28934 17.6811 4.55772L9.04499 7.10198C9.02095 7.10906 8.99747 7.11731 8.9746 7.12665H5.85747C5.10776 7.12665 4.5 7.74996 4.5 8.51886V15.4799C4.5 16.2488 5.10776 16.8721 5.85747 16.8721H8.95009C8.98081 16.886 9.01272 16.8978 9.04569 16.9075L17.6825 19.4427C18.5931 19.71 19.5 19.0088 19.5 18.0373V5.96272ZM8.50452 8.51886V15.4799H5.85747V8.51886H8.50452Z" fill="#FF9900"/>
</g>
<defs>
<clipPath id="clip0_21526_11564">
<rect width="15" height="15" fill="white" transform="translate(4.5 4.5)"/>
</clipPath>
</defs>
</svg>
