<svg width="20" height="20" viewBox="0 0 20 20" fill="none" xmlns="http://www.w3.org/2000/svg">
<path d="M3.57812 10.0002C3.57812 6.53158 6.38997 3.71973 9.85856 3.71973C12.0571 3.71973 13.993 4.84937 15.1155 6.56229H13.8585C13.7204 6.56229 13.6085 6.67422 13.6085 6.81229V7.87479C13.6085 8.01286 13.7204 8.12479 13.8585 8.12479L17.3585 8.12524C17.7037 8.12524 17.9835 7.84542 17.9835 7.50024V4.00024C17.9835 3.86217 17.8716 3.75024 17.7335 3.75024H16.671C16.5329 3.75024 16.421 3.86217 16.421 4.00024V5.70388C15.0205 3.56892 12.605 2.15723 9.85856 2.15723C5.52703 2.15723 2.01562 5.66863 2.01562 10.0002C2.01562 14.3317 5.52703 17.8431 9.85856 17.8431C13.3874 17.8431 16.3701 15.5133 17.3559 12.3092C17.3965 12.1772 17.3176 12.0395 17.1844 12.0031L16.1594 11.7235C16.0262 11.6871 15.8892 11.7659 15.8475 11.8975C15.0432 14.4392 12.665 16.2806 9.85856 16.2806C6.38997 16.2806 3.57812 13.4688 3.57812 10.0002Z" fill="#3888FF"/>
</svg>
