<svg viewBox="0 0 33 32" fill="none" xmlns="http://www.w3.org/2000/svg">
<path d="M30.5 16C30.5 23.732 24.232 30 16.5 30C8.76801 30 2.5 23.732 2.5 16C2.5 8.26801 8.76801 2 16.5 2C24.232 2 30.5 8.26801 30.5 16ZM14.8452 21.0655C15.1104 21.0729 15.378 20.9754 15.5804 20.773L23.7828 12.5706C23.939 12.4143 23.939 12.1611 23.7828 12.0049L22.5808 10.8028C22.4245 10.6466 22.1713 10.6466 22.0151 10.8028L14.8722 17.9456L10.985 14.0584C10.8288 13.9022 10.5756 13.9022 10.4193 14.0584L9.21727 15.2605C9.06106 15.4167 9.06106 15.67 9.21727 15.8262L14.164 20.7729C14.3527 20.9616 14.598 21.0591 14.8452 21.0655Z" fill="#00B73E"/>
</svg>
