<svg width="64" height="61" viewBox="0 0 64 61" fill="none" xmlns="http://www.w3.org/2000/svg">
<path d="M34.5916 38.7031L33.6335 38.4165L34.5916 38.7031ZM22.3347 32.0275L23.3347 32.0286L22.3347 32.0275ZM36.0458 38.4712L36.6158 39.2929L36.0458 38.4712ZM56.0287 0.181279L47.7104 8.19002L58.8053 11.3895L56.0287 0.181279ZM10.789 60.3111C11.1321 60.2486 11.484 60.1762 11.8436 60.094L11.3978 58.1443C11.066 58.2202 10.7432 58.2865 10.4305 58.3435L10.789 60.3111ZM13.9193 59.5337C14.576 59.3305 15.2501 59.098 15.9363 58.8358L15.2225 56.9675C14.5759 57.2146 13.9426 57.4329 13.328 57.6231L13.9193 59.5337ZM17.9036 58.0152C18.5372 57.7285 19.1767 57.4173 19.818 57.0812L18.8896 55.3097C18.2828 55.6277 17.678 55.9221 17.0791 56.193L17.9036 58.0152ZM21.675 56.0388C22.2759 55.6783 22.8751 55.2956 23.4692 54.8902L22.3419 53.2382C21.7808 53.621 21.2145 53.9828 20.6462 54.3237L21.675 56.0388ZM25.1934 53.6363C25.7507 53.2047 26.3003 52.7518 26.8393 52.2773L25.5178 50.7761C25.0111 51.2221 24.4938 51.6484 23.9687 52.0552L25.1934 53.6363ZM28.3967 50.8136C28.8963 50.3118 29.3832 49.7894 29.8544 49.2461L28.3435 47.9357C27.9033 48.4433 27.4478 48.9321 26.9795 49.4023L28.3967 50.8136ZM31.2003 47.5773C31.6257 47.0088 32.0336 46.4203 32.4215 45.8116L30.7348 44.7368C30.3745 45.3022 29.9951 45.8496 29.599 46.3791L31.2003 47.5773ZM33.5051 43.957C33.839 43.3307 34.1517 42.6855 34.4409 42.0213L32.6072 41.2229C32.3394 41.8379 32.0498 42.4355 31.7403 43.016L33.5051 43.957ZM35.2204 40.0153C35.3362 39.6778 35.4461 39.336 35.5496 38.9897L33.6335 38.4165C33.5376 38.7372 33.4359 39.0537 33.3287 39.3661L35.2204 40.0153ZM35.5496 38.9897C35.6607 38.6183 35.7548 38.2515 35.8326 37.8896L33.8773 37.4692C33.8108 37.7786 33.7299 38.0944 33.6335 38.4165L35.5496 38.9897ZM36.1157 35.6205C36.1412 34.816 36.0836 34.0453 35.9536 33.3129L33.9843 33.6625C34.0899 34.2568 34.1379 34.8889 34.1167 35.557L36.1157 35.6205ZM35.2915 31.0763C34.9775 30.3374 34.5857 29.6592 34.1353 29.0474L32.5247 30.2332C32.885 30.7226 33.1989 31.2656 33.4507 31.8584L35.2915 31.0763ZM32.5345 27.3374C31.9184 26.8185 31.2528 26.3875 30.5629 26.0531L29.6903 27.8527C30.2286 28.1137 30.755 28.4535 31.2462 28.8672L32.5345 27.3374ZM28.2876 25.3199C27.4567 25.1832 26.6173 25.1885 25.8163 25.3625L26.2409 27.3169C26.7674 27.2026 27.3506 27.1927 27.963 27.2934L28.2876 25.3199ZM23.5054 26.4831C22.8791 27.0094 22.3664 27.6935 21.9976 28.527L23.8266 29.3363C24.0795 28.7646 24.4131 28.3328 24.7921 28.0143L23.5054 26.4831ZM21.3963 30.8624C21.3559 31.2336 21.3351 31.6216 21.3347 32.0265L23.3347 32.0286C23.335 31.6907 23.3524 31.3745 23.3846 31.0791L21.3963 30.8624ZM21.3347 32.0265C21.3343 32.3991 21.3418 32.761 21.3572 33.1123L23.3553 33.025C23.3413 32.705 23.3343 32.3729 23.3347 32.0286L21.3347 32.0265ZM21.5734 35.3009C21.7014 36.094 21.8803 36.8209 22.1087 37.4824L23.9991 36.8295C23.8129 36.2902 23.6599 35.6766 23.5478 34.9823L21.5734 35.3009ZM23.1437 39.5825C23.6312 40.2942 24.2114 40.8715 24.8731 41.3118L25.981 39.6467C25.5461 39.3574 25.1459 38.9664 24.7938 38.4523L23.1437 39.5825ZM27.1586 42.2297C27.9212 42.3729 28.7173 42.3872 29.5277 42.2946L29.3008 40.3076C28.6586 40.3809 28.0659 40.3652 27.5278 40.2641L27.1586 42.2297ZM31.7486 41.7983C32.4276 41.5776 33.1145 41.2953 33.8026 40.9589L32.924 39.1622C32.3104 39.4622 31.7106 39.7077 31.1306 39.8962L31.7486 41.7983ZM35.7091 39.8923C36.0119 39.702 36.3142 39.502 36.6158 39.2929L35.4759 37.6495C35.1983 37.842 34.921 38.0254 34.6447 38.1991L35.7091 39.8923ZM36.6158 39.2929C36.9006 39.0953 37.185 38.8794 37.4685 38.6469L36.2004 37.1004C35.9542 37.3022 35.7126 37.4853 35.4759 37.6495L36.6158 39.2929ZM39.0071 37.2218C39.4663 36.7494 39.9262 36.2358 40.3854 35.6858L38.8501 34.404C38.419 34.9204 37.9928 35.3959 37.573 35.8277L39.0071 37.2218ZM41.6502 34.0789C42.0422 33.5531 42.4339 33.0024 42.8245 32.4292L41.1719 31.3028C40.7957 31.8547 40.4204 32.3823 40.0467 32.8836L41.6502 34.0789ZM43.9349 30.7365C44.2867 30.1803 44.6372 29.6073 44.9861 29.0192L43.2659 27.9989C42.9262 28.5716 42.5856 29.1283 42.2446 29.6674L43.9349 30.7365ZM45.9923 27.273C46.3148 26.6975 46.6354 26.1102 46.9535 25.5125L45.1881 24.5727C44.8764 25.1583 44.5627 25.7329 44.2476 26.2953L45.9923 27.273ZM47.8792 23.7312C48.1793 23.1401 48.4768 22.5407 48.7712 21.9342L46.9721 21.0607C46.6826 21.6569 46.3904 22.2457 46.0958 22.8259L47.8792 23.7312ZM49.6308 20.1256C49.9111 19.5232 50.1881 18.9153 50.4615 18.303L48.6354 17.4875C48.3661 18.0906 48.0933 18.689 47.8175 19.2818L49.6308 20.1256ZM51.2645 16.4683C51.5271 15.8561 51.7857 15.2406 52.0401 14.6231L50.1908 13.8614C49.9401 14.4701 49.6851 15.0767 49.4264 15.68L51.2645 16.4683ZM52.7893 12.7671C53.0351 12.1457 53.2762 11.5232 53.5122 10.9009L51.6422 10.1916C51.4095 10.8052 51.1718 11.4189 50.9295 12.0316L52.7893 12.7671ZM54.2085 9.02531C54.4376 8.39441 54.6611 7.76476 54.8786 7.13755L52.9889 6.48237C52.7747 7.10031 52.5544 7.7208 52.3286 8.34266L54.2085 9.02531ZM55.5204 5.24043C55.7313 4.60107 55.9354 3.96549 56.1322 3.33498L54.2231 2.73899C54.0295 3.35909 53.8287 3.98451 53.621 4.61397L55.5204 5.24043Z" fill="white"/>
</svg>
