<svg xmlns="http://www.w3.org/2000/svg" viewBox="0 0 24 24" fill="#434343">
  <path fill-rule="evenodd" clip-rule="evenodd" d="M18.9566 5.90538C21.2154 9.10164 22.3309 12.7069 21.9139 16.8574C21.9121 16.875 21.9026 16.8911 21.8876 16.9017C20.1771 18.1105 18.5199 18.8442 16.8859 19.3307C16.8598 19.3383 16.8316 19.3291 16.8157 19.3078C16.4382 18.8023 16.0952 18.2693 15.7947 17.7097C15.7774 17.6767 15.7932 17.637 15.8287 17.624C16.3734 17.4265 16.8914 17.1897 17.3897 16.9094C17.4289 16.8873 17.4314 16.8331 17.3952 16.8072C17.2894 16.7316 17.1847 16.6522 17.0844 16.5728C17.0657 16.5581 17.0404 16.5552 17.0192 16.5651C13.7844 18.0027 10.2409 18.0027 6.96792 16.5651C6.94667 16.556 6.92142 16.5591 6.90317 16.5735C6.80317 16.6529 6.69817 16.7316 6.59342 16.8072C6.55717 16.8331 6.56017 16.8873 6.59967 16.9094C7.09792 17.1844 7.61592 17.4265 8.15992 17.625C8.19517 17.638 8.21192 17.6767 8.19442 17.7097C7.90042 18.2701 7.55742 18.803 7.17292 19.3085C7.15617 19.329 7.12867 19.3384 7.10267 19.3307C5.47642 18.8442 3.81917 18.1105 2.10868 16.9017C2.09443 16.8911 2.08418 16.8743 2.08268 16.8567C1.73418 13.2666 2.44442 9.63146 5.03717 5.90466C5.04342 5.8948 5.05292 5.8871 5.06392 5.88253C6.33967 5.31902 7.70642 4.90445 9.13491 4.66769C9.16091 4.66384 9.18691 4.67539 9.20041 4.69753C9.37691 4.99829 9.57866 5.38398 9.71516 5.69918C11.2209 5.47782 12.7502 5.47782 14.2874 5.69918C14.4239 5.39072 14.6187 4.99829 14.7944 4.69753C14.8072 4.675 14.8337 4.66296 14.8599 4.66769C16.2892 4.90517 17.6559 5.31974 18.9306 5.88253C18.9419 5.8871 18.9511 5.8948 18.9566 5.90538ZM10.4808 12.7316C10.4966 11.6702 9.69256 10.792 8.68331 10.792C7.68232 10.792 6.88607 11.6625 6.88607 12.7316C6.88607 13.8003 7.69807 14.6709 8.68331 14.6709C9.68456 14.6709 10.4808 13.8003 10.4808 12.7316ZM17.1263 12.7316C17.1421 11.6702 16.3381 10.792 15.3291 10.792C14.3278 10.792 13.5316 11.6625 13.5316 12.7316C13.5316 13.8003 14.3436 14.6709 15.3291 14.6709C16.3381 14.6709 17.1263 13.8003 17.1263 12.7316Z"/>
</svg>