<svg xmlns="http://www.w3.org/2000/svg" width="17" height="16" viewBox="0 0 17 16" fill="none">
  <path fill-rule="evenodd" clip-rule="evenodd" d="M13.1377 3.93692C14.6436 6.06775 15.3872 8.47128 15.1092 11.2383C15.1081 11.25 15.1017 11.2607 15.0917 11.2678C13.9514 12.0737 12.8466 12.5628 11.7572 12.8871C11.7399 12.8922 11.721 12.8861 11.7104 12.8719C11.4587 12.5348 11.2301 12.1795 11.0297 11.8064C11.0182 11.7845 11.0287 11.758 11.0524 11.7493C11.4156 11.6176 11.7609 11.4598 12.0931 11.2729C12.1192 11.2582 12.1209 11.2221 12.0967 11.2048C12.0262 11.1544 11.9564 11.1015 11.8896 11.0485C11.8771 11.0387 11.8602 11.0368 11.8461 11.0434C9.68958 12.0018 7.32725 12.0018 5.14526 11.0434C5.13109 11.0373 5.11426 11.0394 5.10209 11.049C5.03543 11.1019 4.96543 11.1544 4.89559 11.2048C4.87143 11.2221 4.87343 11.2582 4.89976 11.2729C5.23192 11.4563 5.57726 11.6176 5.93992 11.75C5.96342 11.7586 5.97459 11.7845 5.96292 11.8064C5.76692 12.18 5.53826 12.5353 5.28192 12.8723C5.27076 12.886 5.25242 12.8922 5.23509 12.8871C4.15093 12.5628 3.04609 12.0737 1.90576 11.2678C1.89626 11.2607 1.88943 11.2495 1.88843 11.2378C1.6561 8.84438 2.1296 6.42097 3.85809 3.93643C3.86226 3.92986 3.86859 3.92472 3.87593 3.92168C4.72643 3.54601 5.63759 3.26963 6.58992 3.11179C6.60726 3.10922 6.62459 3.11692 6.63359 3.13168C6.75126 3.33218 6.88576 3.58931 6.97676 3.79945C7.98059 3.65187 9.00009 3.65187 10.0249 3.79945C10.1159 3.59381 10.2458 3.33218 10.3629 3.13168C10.3715 3.11666 10.3891 3.10863 10.4066 3.11179C11.3594 3.27011 12.2706 3.54649 13.1204 3.92168C13.1279 3.92472 13.1341 3.92986 13.1377 3.93692V3.93692ZM7.48719 8.4877C7.49769 7.78015 6.9617 7.19467 6.28886 7.19467C5.62153 7.19467 5.0907 7.77502 5.0907 8.4877C5.0907 9.20023 5.63203 9.78058 6.28886 9.78058C6.95636 9.78058 7.48719 9.20023 7.48719 8.4877V8.4877ZM11.9175 8.4877C11.928 7.78015 11.392 7.19467 10.7194 7.19467C10.0519 7.19467 9.52104 7.77502 9.52104 8.4877C9.52104 9.20023 10.0624 9.78058 10.7194 9.78058C11.392 9.78058 11.9175 9.20023 11.9175 8.4877V8.4877Z" fill="#434343"/>
</svg>