<svg xmlns="http://www.w3.org/2000/svg" width="17" height="16" viewBox="0 0 17 16" fill="none">
  <g clip-path="url(#clip0_15027_13238)">
    <path d="M7.70132 11.8459C7.76287 11.846 7.82379 11.8582 7.88062 11.8818C7.93745 11.9055 7.98907 11.9401 8.03252 11.9836C8.07598 12.0272 8.11043 12.0789 8.1339 12.1358C8.15737 12.1927 8.16941 12.2537 8.16932 12.3152C8.16923 12.3768 8.15702 12.4377 8.13339 12.4945C8.10976 12.5514 8.07516 12.603 8.03158 12.6464C7.988 12.6899 7.93628 12.7243 7.87939 12.7478C7.82249 12.7713 7.76153 12.7833 7.69999 12.7832C7.57569 12.7831 7.45655 12.7335 7.36879 12.6455C7.28102 12.5575 7.23181 12.4382 7.23199 12.3139C7.23216 12.1896 7.28171 12.0705 7.36973 11.9827C7.45775 11.8949 7.57702 11.8457 7.70132 11.8459ZM15.0507 8.9479C14.9891 8.94785 14.9282 8.93569 14.8713 8.91209C14.8145 8.8885 14.7628 8.85394 14.7194 8.81039C14.6759 8.76684 14.6414 8.71515 14.6179 8.65827C14.5944 8.60139 14.5823 8.54044 14.5823 8.4789C14.5824 8.41735 14.5945 8.35642 14.6181 8.29957C14.6417 8.24273 14.6763 8.19109 14.7198 8.1476C14.7634 8.10411 14.8151 8.06962 14.8719 8.04611C14.9288 8.0226 14.9898 8.01052 15.0513 8.01056C15.1756 8.01065 15.2948 8.06011 15.3826 8.14807C15.4704 8.23602 15.5197 8.35526 15.5197 8.47956C15.5196 8.60386 15.4701 8.72303 15.3821 8.81086C15.2942 8.89869 15.175 8.94798 15.0507 8.9479ZM15.0507 7.03056C14.6664 7.03092 14.2979 7.18373 14.0262 7.45545C13.7545 7.72718 13.6017 8.09562 13.6013 8.4799C13.6013 8.63523 13.6273 8.7899 13.678 8.94056L8.89065 11.4892C8.75791 11.2965 8.58029 11.1389 8.37309 11.0301C8.1659 10.9213 7.93535 10.8645 7.70132 10.8646C7.14865 10.8646 6.64532 11.1812 6.40132 11.6752L2.10065 9.40723C1.64599 9.16856 1.30599 8.42056 1.34199 7.73923C1.36065 7.3839 1.48332 7.1079 1.67065 7.00123C1.78932 6.93456 1.93199 6.9399 2.08399 7.01923L2.11199 7.03456C3.25199 7.63456 6.98132 9.59923 7.13865 9.6719C7.38065 9.78456 7.51532 9.8299 7.92865 9.6339L15.638 5.62456C15.7513 5.5819 15.8833 5.47323 15.8833 5.30856C15.8833 5.08056 15.6473 4.99056 15.6467 4.99056C15.208 4.78056 14.534 4.46523 13.8767 4.15723C12.4713 3.49923 10.8787 2.7539 10.1793 2.38723C9.57532 2.07123 9.08932 2.3379 9.00265 2.39123L8.83465 2.47456C5.68665 4.03123 1.47332 6.1179 1.23332 6.2639C0.804654 6.52523 0.538654 7.0459 0.503988 7.6919C0.450654 8.71656 0.972654 9.78523 1.71999 10.1766L6.26799 12.5219C6.31809 12.8664 6.49047 13.1814 6.75363 13.4093C7.0168 13.6372 7.35318 13.7629 7.70132 13.7632C8.08154 13.7626 8.44632 13.6128 8.71723 13.346C8.98814 13.0792 9.14353 12.7167 9.14999 12.3366L14.1593 9.62123C14.4127 9.8199 14.728 9.92856 15.0507 9.92856C15.4349 9.92821 15.8034 9.7754 16.0751 9.50367C16.3468 9.23195 16.4996 8.86351 16.5 8.47923C16.4996 8.09495 16.3468 7.72651 16.0751 7.45479C15.8034 7.18306 15.4349 7.03025 15.0507 7.0299" fill="#434343"/>
  </g>
  <defs>
    <clipPath id="clip0_15027_13238">
      <rect width="16" height="16" fill="white" transform="translate(0.5)"/>
    </clipPath>
  </defs>
</svg>