<svg xmlns="http://www.w3.org/2000/svg" viewBox="0 0 24 24" fill="#434343">
  <g clip-path="url(#clip0_15065_13588)">
    <path d="M10.802 17.7695C10.8943 17.7696 10.9857 17.788 11.071 17.8234C11.1562 17.8589 11.2336 17.9108 11.2988 17.9761C11.364 18.0415 11.4157 18.1191 11.4509 18.2044C11.4861 18.2898 11.5041 18.3812 11.504 18.4735C11.5039 18.5658 11.4856 18.6572 11.4501 18.7425C11.4147 18.8277 11.3628 18.9051 11.2974 18.9703C11.232 19.0355 11.1544 19.0872 11.0691 19.1224C10.9838 19.1576 10.8923 19.1756 10.8 19.1755C10.6136 19.1753 10.4349 19.1009 10.3032 18.9689C10.1716 18.8369 10.0977 18.658 10.098 18.4715C10.0983 18.2851 10.1726 18.1064 10.3046 17.9747C10.4366 17.8431 10.6156 17.7693 10.802 17.7695ZM21.826 13.4225C21.7337 13.4225 21.6423 13.4042 21.557 13.3688C21.4717 13.3334 21.3943 13.2816 21.3291 13.2163C21.2638 13.1509 21.2121 13.0734 21.1768 12.9881C21.1416 12.9028 21.1234 12.8113 21.1235 12.719C21.1236 12.6267 21.1418 12.5353 21.1772 12.45C21.2126 12.3648 21.2644 12.2873 21.3298 12.2221C21.3951 12.1568 21.4726 12.1051 21.5579 12.0698C21.6433 12.0346 21.7347 12.0164 21.827 12.0165C22.0134 12.0166 22.1922 12.0908 22.324 12.2228C22.4557 12.3547 22.5296 12.5336 22.5295 12.72C22.5294 12.9065 22.4552 13.0852 22.3232 13.217C22.1913 13.3487 22.0124 13.4226 21.826 13.4225ZM21.826 10.5465C21.2496 10.547 20.6969 10.7763 20.2893 11.1838C19.8817 11.5914 19.6525 12.1441 19.652 12.7205C19.652 12.9535 19.691 13.1855 19.767 13.4115L12.586 17.2345C12.3869 16.9454 12.1205 16.709 11.8097 16.5458C11.4989 16.3826 11.1531 16.2974 10.802 16.2975C9.973 16.2975 9.218 16.7725 8.852 17.5135L2.401 14.1115C1.719 13.7535 1.209 12.6315 1.263 11.6095C1.291 11.0765 1.475 10.6625 1.756 10.5025C1.934 10.4025 2.148 10.4105 2.376 10.5295L2.418 10.5525C4.128 11.4525 9.722 14.3995 9.958 14.5085C10.321 14.6775 10.523 14.7455 11.143 14.4515L22.707 8.43751C22.877 8.37351 23.075 8.21052 23.075 7.96352C23.075 7.62152 22.721 7.48652 22.72 7.48652C22.062 7.17151 21.051 6.69852 20.065 6.23652C17.957 5.24952 15.568 4.13152 14.519 3.58152C13.613 3.10752 12.884 3.50752 12.754 3.58752L12.502 3.71252C7.78 6.04752 1.46 9.17752 1.1 9.39652C0.457005 9.78852 0.0580045 10.5695 0.00600451 11.5385C-0.0739955 13.0755 0.709004 14.6785 1.83 15.2655L8.652 18.7835C8.72715 19.3003 8.98572 19.7728 9.38047 20.1146C9.77522 20.4565 10.2798 20.6449 10.802 20.6455C11.3723 20.6446 11.9195 20.4198 12.3259 20.0196C12.7322 19.6194 12.9653 19.0758 12.975 18.5055L20.489 14.4325C20.869 14.7305 21.342 14.8935 21.826 14.8935C22.4024 14.893 22.9551 14.6638 23.3627 14.2562C23.7703 13.8486 23.9995 13.2959 24 12.7195C23.9995 12.1431 23.7703 11.5904 23.3627 11.1828C22.9551 10.7753 22.4024 10.546 21.826 10.5455"/>
  </g>
  <defs>
    <clipPath id="clip0_15065_13588">
      <rect width="24" height="24" fill="white"/>
    </clipPath>
  </defs>
</svg>