<svg xmlns="http://www.w3.org/2000/svg" width="17" height="16" viewBox="0 0 17 16" fill="none">
  <path fill-rule="evenodd" clip-rule="evenodd" d="M2.74991 7.23197C6.32904 5.6726 8.71569 4.64457 9.90986 4.14788C13.3194 2.72971 14.0279 2.48336 14.4897 2.47523C14.5913 2.47344 14.8184 2.49861 14.9655 2.61797C15.0897 2.71876 15.1238 2.8549 15.1402 2.95046C15.1565 3.04602 15.1769 3.2637 15.1607 3.43378C14.976 5.37514 14.1765 10.0863 13.7697 12.2607C13.5976 13.1807 13.2588 13.4892 12.9307 13.5194C12.2177 13.585 11.6763 13.0482 10.9858 12.5955C9.90518 11.8872 9.29473 11.4463 8.24584 10.7551C7.03367 9.95626 7.81947 9.51722 8.51028 8.79972C8.69107 8.61194 11.8325 5.75461 11.8933 5.49541C11.9009 5.46299 11.9079 5.34215 11.8361 5.27834C11.7643 5.21454 11.6584 5.23635 11.5819 5.25371C11.4736 5.27831 9.74732 6.41928 6.40322 8.67664C5.91324 9.0131 5.46942 9.17704 5.07178 9.16844C4.63341 9.15897 3.79016 8.92058 3.1633 8.71681C2.39442 8.46688 1.78333 8.33474 1.83654 7.91028C1.86426 7.6892 2.16871 7.46309 2.74991 7.23197Z" fill="#434343"/>
</svg>