<svg xmlns="http://www.w3.org/2000/svg" viewBox="0 0 24 24" fill="#434343">
  <path fill-rule="evenodd" clip-rule="evenodd" d="M3.3749 10.848C8.74359 8.50891 12.3236 6.96686 14.1148 6.22182C19.2292 4.09458 20.2919 3.72505 20.9846 3.71285C21.1369 3.71017 21.4776 3.74792 21.6982 3.92697C21.8845 4.07814 21.9358 4.28236 21.9603 4.4257C21.9848 4.56903 22.0154 4.89555 21.9911 5.15068C21.714 8.06272 20.5147 15.1295 19.9046 18.391C19.6465 19.7711 19.1382 20.2338 18.6461 20.2791C17.5766 20.3775 16.7645 19.5723 15.7287 18.8933C14.1078 17.8308 13.1921 17.1694 11.6188 16.1326C9.80053 14.9344 10.9792 14.2758 12.0155 13.1996C12.2866 12.9179 16.9987 8.63192 17.0899 8.24312C17.1013 8.19449 17.1119 8.01323 17.0042 7.91752C16.8965 7.82181 16.7376 7.85454 16.6229 7.88057C16.4604 7.91747 13.871 9.62893 8.85486 13.015C8.11988 13.5197 7.45416 13.7656 6.8577 13.7527C6.20015 13.7385 4.93528 13.3809 3.99498 13.0752C2.84166 12.7003 1.92503 12.5021 2.00485 11.8654C2.04642 11.5338 2.5031 11.1946 3.3749 10.848Z"/>
</svg>